<?xml version="1.0" encoding="UTF-8"?>
<svg version="1.1" xmlns="http://www.w3.org/2000/svg" width="1254" height="1254">
<path d="M0 0 C413.82 0 827.64 0 1254 0 C1254 413.82 1254 827.64 1254 1254 C840.18 1254 426.36 1254 0 1254 C0 840.18 0 426.36 0 0 Z " fill="#F7F7F7" transform="translate(0,0)"/>
<path d="M0 0 C3.83712269 0.00706613 7.67416424 -0.00906109 11.51126206 -0.02199733 C19.00476507 -0.04351715 26.49811553 -0.04354202 33.99163922 -0.03537179 C40.08571245 -0.02904591 46.17974152 -0.03023239 52.27381432 -0.03664386 C53.14448302 -0.03754552 54.01515173 -0.03844717 54.91220433 -0.03937615 C56.68147002 -0.04122752 58.45073571 -0.04309009 60.22000138 -0.04496371 C76.76776439 -0.06149913 93.31544185 -0.0528581 109.86319969 -0.03597813 C124.97794112 -0.02127281 140.09248391 -0.03592883 155.20719977 -0.06474829 C170.76357792 -0.09418703 186.31986452 -0.10510231 201.87626928 -0.09556609 C203.63774139 -0.09454363 205.39921352 -0.09354902 207.16068566 -0.09258258 C208.02715974 -0.09210619 208.89363383 -0.0916298 209.7863647 -0.09113898 C215.86894651 -0.08898142 221.95144093 -0.09874327 228.03400338 -0.11335361 C235.45238511 -0.13092585 242.87051344 -0.13068917 250.28888544 -0.10800195 C254.06801543 -0.09690608 257.84669974 -0.09359057 261.62580979 -0.11230266 C265.73449396 -0.13238397 269.842105 -0.11322063 273.95077622 -0.09063137 C275.12794007 -0.10246709 276.30510391 -0.11430282 277.51793939 -0.12649721 C297.4126913 0.09452388 308.83586274 10.5401461 322.07560837 23.85371983 C323.20799997 24.98503627 324.34082492 26.11591908 325.47404587 27.24640477 C328.52805206 30.29559703 331.57582531 33.3509482 334.62232554 36.40763748 C337.82413271 39.61828354 341.03126685 42.82360071 344.23768723 46.02963841 C349.61904454 51.41192983 354.99652993 56.79806484 360.37150681 62.18672764 C366.57060759 68.40155516 372.77492073 74.61113935 378.98225617 80.81774145 C385.6136065 87.44841436 392.24113655 94.08289574 398.86756003 100.71849191 C400.76744397 102.62049889 402.66802996 104.52180189 404.56877625 106.42294705 C407.56382744 109.41900881 410.55629388 112.4176297 413.54684556 115.41818249 C414.63959633 116.51383357 415.73317116 117.60866353 416.82766449 118.7025739 C422.00718754 123.88038312 427.08633956 129.08973172 431.85525429 134.65211403 C434.95745931 138.17292983 438.3069202 141.44945182 441.63566697 144.7543546 C442.80539299 145.92189023 442.80539299 145.92189023 443.99874985 147.11301243 C445.67923171 148.78971158 447.36086702 150.46525533 449.04354966 152.13974583 C451.71162927 154.7949735 454.37649523 157.45338969 457.04057419 160.11263096 C462.69641935 165.75709018 468.35615412 171.39763944 474.01652634 177.03755772 C480.57962195 183.57693737 487.14101272 190.11801257 493.69821274 196.6633054 C496.31451286 199.27315703 498.93382333 201.87996099 501.55326951 204.4866544 C503.16812394 206.09787386 504.78283677 207.70923526 506.39738572 209.32076085 C507.11863129 210.0368401 507.83987687 210.75291935 508.58297837 211.49069798 C512.51046182 215.4177749 516.23226032 219.45357476 519.86003792 223.65815938 C522.36078046 226.49542122 525.02534978 229.14706951 527.72380173 231.79488194 C528.3004004 232.36520146 528.87699906 232.93552098 529.47107041 233.52312291 C530.70798735 234.7463215 531.94599068 235.96842236 533.18500054 237.18950093 C535.15246586 239.13000385 537.11525322 241.07512548 539.07669175 243.0217191 C544.64847508 248.55107085 550.22292174 254.07764215 555.81364548 259.58785069 C559.24750369 262.972924 562.67129246 266.36790918 566.08891213 269.76937306 C567.38369332 271.05432628 568.68210366 272.33563428 569.98434746 273.61302388 C576.89930163 280.39885107 583.23113 286.72579435 587.51652634 295.53755772 C587.87805456 296.27491343 588.23958277 297.01226914 588.61206639 297.77196896 C592.37251064 306.63149583 592.03410308 315.39984482 591.93351853 324.8246671 C591.92819355 326.74872517 591.92467527 328.6727889 591.92275345 330.59685338 C591.91435506 334.87300307 591.89269248 339.1488281 591.86147416 343.42487156 C591.80880801 350.64635647 591.78424513 357.86780471 591.76182663 365.0894376 C591.72602359 375.73920475 591.67817841 386.38885876 591.62314621 397.03854281 C591.51332421 418.38656019 591.45220798 439.7346336 591.3950063 461.08284771 C591.27944883 504.14030592 591.12351941 547.1975102 590.94139969 590.25473607 C590.92146184 594.98165945 590.90158908 599.7085831 590.88176072 604.43550694 C590.87683041 605.60849949 590.8719001 606.78149204 590.86682039 607.99002981 C590.78622278 627.25749256 590.72111863 646.5249791 590.66152671 665.79251701 C590.59927972 685.82345599 590.52220188 705.85429669 590.43094623 725.8851248 C590.38053657 737.03597949 590.336587 748.18677453 590.30983841 759.33771336 C590.28725899 768.74973561 590.25139742 778.16158788 590.19819227 787.57348895 C590.17156825 792.35604918 590.151148 797.13841285 590.14809906 801.92105114 C590.14516055 806.30560789 590.12370595 810.68969125 590.08825752 815.0741021 C590.07866124 816.64770572 590.07551684 818.22136688 590.07996872 819.79499346 C590.11257221 833.5940832 588.4516339 847.77092531 581.64152634 860.03755772 C581.29130417 860.69787999 580.94108201 861.35820225 580.58024704 862.03853428 C579.58489266 863.88766737 578.56026866 865.7154042 577.51652634 867.53755772 C577.0331279 868.38833897 576.54972947 869.23912022 576.05168259 870.11568272 C564.22128819 889.18147775 543.95596205 902.91723532 522.22943026 908.0811497 C511.80456737 910.11791596 501.32695441 909.82832707 490.75225937 909.81844151 C488.53359977 909.82361484 486.31494203 909.82964284 484.09628683 909.83644831 C478.01848416 909.85252388 471.94072882 909.85616384 465.86290741 909.85764325 C459.9749247 909.86097396 454.08696631 909.87361772 448.19899634 909.88580007 C432.43590091 909.91783782 416.67280955 909.92971709 400.90968741 909.93929757 C393.44544913 909.94397754 385.9812139 909.9511837 378.516978 909.95868832 C352.94078414 909.98435155 327.36459196 910.00579096 301.78838551 910.01269352 C300.18450853 910.01313678 298.58063155 910.01358035 296.97675457 910.01402423 C295.36912314 910.0144655 293.7614917 910.01490647 292.15386027 910.01534712 C288.92896445 910.0162322 285.70406864 910.01712644 282.47917283 910.01802647 C281.67959319 910.01824525 280.88001355 910.01846403 280.05620423 910.01868945 C254.14065929 910.02594771 228.22522634 910.05778089 202.30972427 910.1044072 C174.8775112 910.15367165 147.44536211 910.18104232 120.01310354 910.18342936 C116.9979983 910.18377224 113.98289308 910.18420309 110.96778786 910.18469822 C110.22544364 910.18480976 109.48309942 910.1849213 108.71825992 910.18503622 C96.80627388 910.18733112 84.89440343 910.20932254 72.98245634 910.23847234 C60.99505672 910.26729813 49.00780422 910.27362251 37.02037943 910.25759238 C30.53467125 910.24980218 24.04934948 910.25152604 17.56368935 910.27970707 C11.61373489 910.30532286 5.66445445 910.30267105 -0.2855 910.27852565 C-2.42548038 910.27463529 -4.56550966 910.28065824 -6.70542156 910.29821438 C-33.64171621 910.50501954 -57.03896398 902.50017487 -76.60456741 883.47505772 C-78.33964697 881.55835514 -79.92929294 879.60324095 -81.48347366 877.53755772 C-82.06484085 876.76798741 -82.64620803 875.9984171 -83.24519241 875.20552647 C-93.05904685 861.6875274 -100.59898974 845.95383697 -100.61227483 828.9183991 C-100.61718312 827.26377687 -100.61718312 827.26377687 -100.62219056 825.57572794 C-100.62070694 824.37194801 -100.61922332 823.16816808 -100.61769474 821.92790997 C-100.62004697 820.63755133 -100.6223992 819.34719268 -100.62482271 818.01773226 C-100.63121751 814.42667135 -100.63138474 810.83563282 -100.6305453 807.2445673 C-100.6307149 803.3411316 -100.6366222 799.4377039 -100.64178616 795.53427219 C-100.65111216 787.78793735 -100.65503421 780.04160822 -100.65730512 772.29526846 C-100.66026721 763.01822646 -100.66896467 753.74119203 -100.6777194 744.464154 C-100.69856487 722.0398737 -100.70903387 699.61559208 -100.71784901 677.19130435 C-100.72205548 666.58290991 -100.72727748 655.97451602 -100.73253354 645.36612205 C-100.75042405 609.05249081 -100.76541997 572.73885941 -100.77285373 536.42522442 C-100.77332849 534.14537426 -100.77380438 531.86552409 -100.77428139 529.58567392 C-100.77451777 528.45507303 -100.77475415 527.32447214 -100.77499769 526.15961062 C-100.77619888 520.43142632 -100.77741433 514.70324202 -100.77863967 508.97505772 C-100.77887982 507.83828221 -100.77911997 506.7015067 -100.7793674 505.53028344 C-100.7872599 468.6753222 -100.81069056 431.82039315 -100.84319562 394.96544596 C-100.87749874 356.00066162 -100.89720533 317.03589611 -100.90049797 278.07109642 C-100.90091551 273.79300884 -100.90139507 269.51492126 -100.90192115 265.23683369 C-100.90204434 264.18344765 -100.90216754 263.1300616 -100.90229446 262.04475476 C-100.9046259 245.09736953 -100.92028278 228.1500217 -100.940763 211.20264979 C-100.96102582 194.16473813 -100.96649613 177.12687136 -100.95699237 160.08894987 C-100.95177918 149.96977413 -100.95764634 139.85074792 -100.97952704 129.73159372 C-100.99304886 122.96623017 -100.99194591 116.20096938 -100.97912508 109.43560478 C-100.97223766 105.5846819 -100.97152687 101.73404459 -100.98868517 97.88314737 C-101.13568004 62.7468375 -101.13568004 62.7468375 -92.73347366 47.22505772 C-92.38985794 46.56755528 -92.04624221 45.91005284 -91.69221389 45.23262608 C-82.8314916 28.703777 -70.39124044 17.0477026 -53.92097366 8.35005772 C-53.3395259 8.02900059 -52.75807815 7.70794346 -52.15901077 7.37715733 C-35.86081887 -0.87317624 -17.74825648 -0.05301139 0 0 Z " fill="#071321" transform="translate(381.4834736585617,166.462442278862)"/>
<path d="M0 0 C56.1 0 112.2 0 170 0 C170.99 4.455 170.99 4.455 172 9 C172.97590723 11.69561402 173.96592608 14.26561608 175.125 16.875 C175.58350342 17.90862671 175.58350342 17.90862671 176.05126953 18.96313477 C183.11926605 34.32126493 194.33263375 44.93206392 209 53 C209.87269531 53.4846875 210.74539063 53.969375 211.64453125 54.46875 C225.70732797 61.55415296 241.15240889 62.59233256 256.59179688 62.46655273 C258.37130881 62.46710329 260.15082096 62.46948921 261.93032837 62.47354126 C265.72137627 62.47866557 269.5121317 62.47179993 273.30314636 62.45528984 C279.30590078 62.42991679 285.30837494 62.43652199 291.31115723 62.44776917 C306.20555887 62.47083536 321.09987475 62.45251484 335.9942627 62.42626953 C347.60531191 62.40629574 359.21613367 62.3977722 370.82718325 62.42320591 C376.78739316 62.43497738 382.74695146 62.42347274 388.70709324 62.3939532 C392.41586202 62.38065435 396.12438075 62.38814377 399.83314133 62.40123367 C401.5447302 62.40308221 403.25635386 62.39644533 404.9678688 62.38043022 C415.14718288 62.29041369 424.03228218 62.54603325 431.95290375 69.78478146 C437.52701047 75.50822268 437.14806963 82.11474139 437.12863445 89.69362354 C437.13038749 90.56060919 437.13214053 91.42759484 437.13394669 92.32085279 C437.1386089 95.23408481 437.1361406 98.14726698 437.13371277 101.0605011 C437.13558063 103.1670386 437.13788123 105.27357575 437.14057809 107.38011235 C437.14670558 113.17538889 437.14656138 118.97065102 437.14538372 124.76593006 C437.14517995 131.01350114 437.15069615 137.26106756 437.15544128 143.50863647 C437.16375353 155.75111968 437.16650933 167.99359631 437.16705366 180.23608176 C437.16751314 190.18532928 437.16957114 200.13457524 437.17275429 210.08382225 C437.17365183 212.94732751 437.17454164 215.81083278 437.17542917 218.67433804 C437.17576074 219.74214042 437.17576074 219.74214042 437.17609901 220.83151456 C437.18225349 240.85596242 437.18619954 260.88040974 437.18575573 280.90485859 C437.18574015 281.65987712 437.18572457 282.41489565 437.18570852 283.19279353 C437.18562541 287.01957359 437.18552637 290.84635365 437.18542381 294.67313371 C437.1853939 295.81315974 437.1853939 295.81315974 437.18536337 296.9762166 C437.18532294 298.51315693 437.18528114 300.05009725 437.18523798 301.58703758 C437.18462519 325.50065808 437.19213233 349.41426441 437.20581055 373.32788086 C437.22117027 400.19238394 437.22977684 427.05687771 437.22884732 453.92138547 C437.22877269 456.7858338 437.22872399 459.65028212 437.22869301 462.51473045 C437.22867553 463.57268658 437.22867553 463.57268658 437.22865769 464.65201556 C437.22862692 476.00317622 437.23501332 487.35432456 437.24362527 498.70548155 C437.25210108 510.11310432 437.25292064 521.52070417 437.24651595 532.9283301 C437.24324485 539.10859125 437.24321535 545.28880778 437.2518692 551.46906471 C437.25970899 557.12606648 437.25832859 562.78298805 437.24958507 568.4399878 C437.24804452 570.48706172 437.24988705 572.53414155 437.25544515 574.5812085 C437.26250037 577.36385375 437.25721531 580.14621734 437.24888897 582.92885303 C437.25385715 583.72331535 437.25882533 584.51777766 437.26394406 585.33631459 C437.19254254 596.62581414 434.02263473 604.16288397 426.6875 612.6875 C419.39493345 618.96249912 412.79192933 623.25208667 402.98163891 623.24609566 C402.28363648 623.24840335 401.58563404 623.25071103 400.86648002 623.25308865 C398.5220715 623.25839234 396.17793639 623.24940158 393.83354187 623.24050903 C392.13805779 623.24138102 390.44257397 623.24313189 388.74709159 623.24568737 C384.08370867 623.25016615 379.42041735 623.2421499 374.7570461 623.23213124 C369.72982049 623.22350671 364.70260019 623.2264162 359.67536926 623.22793579 C350.96390747 623.22898527 342.25247561 623.22270206 333.54102135 623.21146011 C320.94567277 623.19521666 308.35033869 623.18999829 295.75498078 623.18748413 C275.32061375 623.18310521 254.88626267 623.16979078 234.4519043 623.15087891 C214.60001708 623.1325252 194.74813421 623.11838913 174.89624023 623.10986328 C173.04248586 623.10905929 173.04248586 623.10905929 171.15128189 623.10823905 C161.4864517 623.10408029 151.82162142 623.10016641 142.15679109 623.09632993 C94.77117942 623.07745732 47.38560767 623.03722195 0 623 C0 506.18 0 389.36 0 269 C48.84 268.67 97.68 268.34 148 268 C156.03763243 265.40332707 156.03763243 265.40332707 160.12605095 259.63693428 C162.07940095 253.74316326 161.68175176 247.47205029 161.63110352 241.33178711 C161.63624753 239.74591778 161.64353244 238.16005417 161.65278625 236.57420349 C161.67124582 232.28487094 161.65839706 227.99616277 161.63869596 223.70685649 C161.62226579 219.2098019 161.63112828 214.7127855 161.63621521 210.2157135 C161.64073083 202.66608753 161.62489821 195.11670975 161.59692383 187.56713867 C161.56486268 178.84760104 161.56489387 170.12851065 161.5821386 161.40894121 C161.59801896 153.00794316 161.59126118 144.60710856 161.57420158 136.20611763 C161.56734179 132.63647657 161.56835246 129.06696696 161.57574654 125.4973278 C161.58342501 121.29216752 161.57123269 117.08751445 161.54389763 112.88244057 C161.53702947 111.34217204 161.53689899 109.801856 161.54411316 108.26158905 C161.75290469 97.42402732 161.75290469 97.42402732 157 88 C149.37761552 82.02569865 140.08426079 82.69486609 130.89477539 82.68115234 C129.46518391 82.67184421 128.03559782 82.66167423 126.60601807 82.65071106 C122.74086477 82.62349663 118.87574775 82.60828715 115.01052403 82.59528303 C110.96526144 82.5796149 106.92007251 82.55283647 102.87486267 82.5272522 C95.22173305 82.48052946 87.56858947 82.44375394 79.91539043 82.41057932 C69.56864053 82.3651515 59.22198195 82.30430261 48.87530804 82.24433136 C32.58358455 82.15030688 16.29183459 82.07683874 0 82 C0 54.94 0 27.88 0 0 Z " fill="#FDFDFD" transform="translate(482,401)"/>
<path d="M0 0 C1.53543503 -0.00298657 1.53543503 -0.00298657 3.10188895 -0.00603348 C4.2195907 -0.00312064 5.33729245 -0.0002078 6.48886395 0.00279331 C7.68144981 0.00193889 8.87403567 0.00108446 10.10276049 0.00020415 C13.40934382 -0.00115807 16.71586796 0.00196683 20.02244413 0.00698221 C23.58953339 0.01130082 27.15662083 0.00983928 30.72371197 0.00907993 C36.90273566 0.0085556 43.0817488 0.011693 49.26076984 0.01731777 C58.19459561 0.02544495 67.12841627 0.02804924 76.06224533 0.02930576 C90.5568053 0.03149436 105.05135964 0.03814926 119.54591656 0.04760838 C133.6259944 0.05678745 147.70607071 0.0638544 161.78615093 0.06811619 C162.66290433 0.06838419 163.53965772 0.06865218 164.4429794 0.0689283 C171.29977112 0.07100772 178.15656288 0.07296465 185.01335466 0.07488286 C218.62227694 0.08431647 252.23118514 0.1044348 285.84010601 0.12304783 C285.84010601 43.35304783 285.84010601 86.58304783 285.84010601 131.12304783 C263.67338726 131.1617197 263.67338726 131.1617197 241.05885601 131.20117283 C231.70728018 131.22633361 222.35572505 131.25249713 213.00416851 131.28320408 C198.15488602 131.3317763 183.30567241 131.3762073 168.45631695 131.39404392 C157.64200604 131.4070526 146.82783492 131.4339974 136.01360273 131.47766089 C130.28779607 131.50029314 124.56216193 131.51595744 118.83630657 131.51493168 C113.44526587 131.51418612 108.05460679 131.53209535 102.66366482 131.56421566 C100.68682248 131.57272356 98.70993737 131.57445856 96.73308468 131.56885052 C94.02917828 131.56220258 91.32648327 131.58015005 88.62269878 131.6040659 C87.84446617 131.59630548 87.06623355 131.58854506 86.26441813 131.58054948 C80.74525379 131.66668506 76.44322533 133.02205541 71.84010601 136.12304783 C66.36980034 142.39982783 67.27406419 149.87017444 67.32252789 157.81982517 C67.31710219 159.31363194 67.30997701 160.80743336 67.30128765 162.30122471 C67.28310121 166.34480823 67.29010311 170.38798205 67.30280399 174.43157244 C67.31295979 178.6727868 67.30353082 182.91396704 67.29725933 187.15518284 C67.28998883 194.27864951 67.29955323 201.40195014 67.31862164 208.52539158 C67.34037258 216.74556096 67.33334966 224.96533318 67.31131601 233.18549287 C67.29312495 240.25666353 67.29062225 247.32771507 67.30107069 254.39890158 C67.30728747 258.61615317 67.30819189 262.83321854 67.29492474 267.05045795 C67.28331331 271.01839677 67.29148758 274.98582723 67.31450176 278.95371151 C67.3197615 280.40445521 67.31832225 281.85524217 67.3094511 283.30596828 C67.26046455 292.13549283 67.38297329 300.36877293 73.71510601 307.12304783 C78.29708288 309.27927224 83.30973575 309.25223868 88.29417706 309.28126621 C89.5729623 309.29105503 90.85174755 309.30084385 92.16928387 309.3109293 C93.5737177 309.31683233 94.97815192 309.32264285 96.38258648 309.32837009 C97.87114002 309.33795701 99.35969088 309.34796756 100.84823895 309.35836887 C104.87872967 309.3853359 108.909232 309.40638971 112.93976259 309.42637086 C117.15584285 309.44828118 121.37188765 309.47564512 125.58793926 309.5024271 C133.56693745 309.55228588 141.54595539 309.59724992 149.52499211 309.64044946 C160.3103879 309.69912644 171.09573701 309.76537661 181.88109112 309.83119965 C198.86739793 309.9346677 215.85374497 310.02802772 232.84010601 310.12304783 C232.84010601 339.82304783 232.84010601 369.52304783 232.84010601 400.12304783 C221.86502789 400.16043064 210.88994976 400.19781345 199.58229351 400.23632908 C192.63696829 400.26659841 185.69165988 400.29761728 178.74635601 400.3320322 C167.71805107 400.38653905 156.68979283 400.43795102 145.66139507 400.46948338 C137.62974996 400.49246151 129.5982272 400.52585749 121.56667912 400.57174939 C117.31425514 400.59568411 113.06195235 400.61441125 108.80946255 400.62066174 C104.80555771 400.62671148 100.80196298 400.6467072 96.79817295 400.67732334 C95.33006284 400.68610535 93.8619122 400.6898258 92.39377689 400.68805599 C90.38585049 400.68639996 88.37793786 400.70488984 86.37010479 400.72432041 C84.68598901 400.73123386 84.68598901 400.73123386 82.96785069 400.73828697 C78.7320168 401.2593599 75.36047998 402.73629342 72.19557476 405.62304783 C68.41668914 410.47619859 67.71509185 413.50433737 67.70144081 419.56734848 C67.69859859 420.22758738 67.69575638 420.88782627 67.69282803 421.56807241 C67.68445965 423.79597928 67.68321115 426.02383431 67.68188763 428.25175571 C67.67732373 429.85889348 67.67232397 431.46603006 67.66692406 433.07316524 C67.65331387 437.5015968 67.64591627 441.93002067 67.6394974 446.3584677 C67.63150609 451.12942989 67.61780396 455.900376 67.60478497 460.67132664 C67.58300418 468.94136331 67.56486556 477.2114016 67.54918003 485.48145199 C67.52649598 497.43865091 67.49835113 509.39583203 67.46886075 521.35301588 C67.42116686 540.75136829 67.37790755 560.14972796 67.33742046 579.54809666 C67.29807468 598.39510762 67.25665066 617.24211212 67.21242046 636.08911228 C67.20969619 637.25026539 67.20697192 638.4114185 67.20416509 639.60775807 C67.19048577 645.43274996 67.17676546 651.25774176 67.16302478 657.08273351 C67.04903177 705.42949148 66.94222867 753.77626343 66.84010601 802.12304783 C57.79026094 802.26279135 48.74079388 802.36904171 39.69010067 802.43392086 C35.48629356 802.46507845 31.28323089 802.50726008 27.0798521 802.57568455 C23.01434675 802.64144161 18.949552 802.6768706 14.88355541 802.69231129 C13.34151572 802.70329781 11.79950975 802.72474936 10.25777721 802.75742817 C0.15897278 802.96274144 -7.42617564 801.69975228 -16.15989399 796.12304783 C-16.76919758 795.7444965 -17.37850117 795.36594517 -18.0062685 794.97592258 C-25.9907389 789.21527623 -29.2668452 779.34324514 -31.15989399 770.12304783 C-31.55751041 765.79717581 -31.56362782 761.50441493 -31.53741741 757.16251373 C-31.54177773 755.89497902 -31.54613806 754.6274443 -31.55063051 753.32149944 C-31.56225766 749.81772296 -31.55535213 746.31419618 -31.54529665 742.810424 C-31.5376623 738.99307831 -31.54747587 735.17576986 -31.55502665 731.35842949 C-31.565848 724.67282593 -31.56554147 717.98729508 -31.55788517 711.30168819 C-31.54653097 701.35996643 -31.55234243 691.41830592 -31.56151009 681.47658455 C-31.57730449 663.7202939 -31.5759393 645.96403563 -31.56727335 628.2077419 C-31.55972716 612.66955389 -31.55775637 597.13137775 -31.56134129 581.59318829 C-31.56157044 580.56256732 -31.5617996 579.53194635 -31.5620357 578.47009444 C-31.56296971 574.28649556 -31.56392491 570.10289669 -31.56491499 565.91929782 C-31.57409207 526.67381118 -31.56577134 487.42834517 -31.5496243 448.18286172 C-31.53538641 413.31240815 -31.53666224 378.44198744 -31.55100727 343.57153416 C-31.56706929 304.39638787 -31.5734423 265.22125981 -31.56417048 226.04611069 C-31.56320832 221.87043767 -31.5622698 217.69476464 -31.56134129 213.51909161 C-31.56110405 212.49093023 -31.56086682 211.46276886 -31.5606224 210.40345108 C-31.55720931 194.8739934 -31.56120204 179.34454889 -31.56877995 163.81509304 C-31.57735261 146.15902197 -31.57522408 128.50298837 -31.55893771 110.84692197 C-31.55012251 100.96421929 -31.54956298 91.08159771 -31.56087624 81.19889711 C-31.56759864 74.59898485 -31.5634253 67.99913768 -31.55036193 61.39923508 C-31.54322055 57.63802051 -31.54079589 53.87696718 -31.55157988 50.11575764 C-31.56308146 46.06295103 -31.55137505 42.01053955 -31.53741741 37.95774078 C-31.54444091 36.79191789 -31.55146441 35.62609499 -31.55870074 34.42494413 C-31.48649342 23.96911374 -29.84752938 15.78347495 -22.48020649 8.10351658 C-15.89470741 2.4825603 -8.58265032 -0.00369464 0 0 Z " fill="#FDFDFD" transform="translate(365.159893989563,221.87695217132568)"/>
<path d="M0 0 C2.52390378 0.00030007 5.04780388 -0.00064803 7.57170725 -0.00205708 C17.27230717 -0.00733301 26.97275293 -0.00012627 36.67331743 0.02765179 C39.64596218 0.03611631 42.6185727 0.04086854 45.59122896 0.0421629 C61.22509891 0.05331121 76.68900478 0.4098187 92.2421174 2.12746334 C97.33761473 2.65155841 102.45167617 3.02893875 107.56551027 3.32301426 C111.59511993 3.68105536 113.49022923 4.23850318 116.61654902 6.88701916 C117.28815058 7.70815197 117.95975214 8.52928478 118.65170527 9.37530041 C118.98170527 9.70530041 119.31170527 10.03530041 119.65170527 10.37530041 C120.09561936 14.98517757 120.20948268 19.1003806 118.33920527 23.37530041 C115.05420245 27.26863708 112.1504957 27.7246343 107.24339533 28.16240978 C94.84069972 29.09158135 82.44015679 29.77710858 70.01498652 30.31280041 C68.5475031 30.37624645 68.5475031 30.37624645 67.05037355 30.44097424 C34.26065409 31.83491872 1.44379044 32.50802133 -31.36441565 33.31280041 C-44.76954928 33.64182481 -58.17459962 33.97407887 -71.57948399 34.31311631 C-73.21840552 34.35454146 -74.85732948 34.39587051 -76.49625587 34.43710303 C-98.06650646 34.98002483 -119.62715441 35.62975042 -141.18813848 36.47295666 C-158.75089478 37.15857699 -176.29432971 37.77226085 -193.8727088 37.80083752 C-197.52919711 37.81342307 -201.18431242 37.86372734 -204.84048223 37.91240978 C-207.21807859 37.9218142 -209.59568466 37.92907743 -211.97329473 37.93389416 C-213.57576056 37.96319263 -213.57576056 37.96319263 -215.21059942 37.993083 C-223.30152185 37.94323336 -223.30152185 37.94323336 -226.97500372 34.96392345 C-231.41228203 30.12404465 -231.86147677 26.54316564 -231.72329473 20.07451916 C-231.11167275 15.67211511 -229.7698458 14.2144598 -226.34829473 11.37530041 C-198.1210711 1.89626992 -164.73288262 3.50732675 -135.28579473 2.25030041 C-133.73989786 2.18364807 -133.73989786 2.18364807 -132.16277075 2.11564922 C-88.11269407 0.23553613 -44.08265328 -0.01324223 0 0 Z " fill="#1DBA59" transform="translate(758.3482947349548,719.6246995925903)"/>
<path d="M0 0 C5.42957432 0.00349323 10.85902238 -0.0062326 16.288571 -0.02250212 C75.26323274 -0.19424704 75.26323274 -0.19424704 103.14159834 1.45821077 C104.04618536 1.50376289 104.95077239 1.54931501 105.88277113 1.59624749 C121.019236 2.39650449 121.019236 2.39650449 125.76488936 6.26949006 C128.92741862 10.24184599 129.04336967 12.0452885 128.68456709 16.90742952 C127.95636747 20.4394844 126.58627881 22.64945122 124.18847334 25.31367952 C121.41092297 26.97420183 119.12496334 27.61558907 115.91674483 27.89156038 C115.04913023 27.96733812 114.18151564 28.04311586 113.2876097 28.12118989 C112.32548064 28.19373491 111.36335158 28.26627992 110.37206709 28.34102327 C109.33199004 28.42295427 108.29191298 28.50488527 107.22031844 28.58929902 C91.48104921 29.74848773 75.70009487 30.23239055 59.93034422 30.78219301 C57.22301646 30.87716018 54.51578163 30.9744641 51.80856001 31.07240754 C26.19659452 31.9965837 0.59155788 32.71361244 -25.03589189 33.02290803 C-34.70202455 33.14228319 -44.33339338 33.33701434 -53.98405778 33.90231782 C-94.36135218 36.19210292 -134.97125094 36.5307159 -175.4034456 36.72209626 C-178.91917051 36.73905521 -182.43451801 36.76734696 -185.95007646 36.80540925 C-190.08990176 36.84917384 -194.22909026 36.86793929 -198.36914003 36.8670128 C-199.89131158 36.87047982 -201.41349051 36.8823322 -202.93552339 36.9031685 C-205.01847043 36.92995177 -207.09910203 36.92548114 -209.18213212 36.91304475 C-210.34824022 36.9181154 -211.51434831 36.92318605 -212.71579301 36.92841035 C-216.76326822 36.12468881 -218.20894307 34.44091549 -220.81152666 31.31367952 C-223.6185167 26.86121255 -224.46742804 23.56089059 -223.81152666 18.31367952 C-221.34405649 13.37873918 -218.98678904 11.16198751 -213.81152666 9.31367952 C-204.7830388 7.42767219 -195.61344658 6.59784106 -186.43652666 5.81367952 C-185.33392503 5.71846513 -185.33392503 5.71846513 -184.20904863 5.62132722 C-123.00202109 0.38420974 -61.39405833 -0.05313721 0 0 Z " fill="#FD4946" transform="translate(749.8115266561508,948.6863204836845)"/>
<path d="M0 0 C7.83339526 -0.00474077 15.66661734 -0.02225505 23.49996054 -0.0510757 C29.68897656 -0.07301096 35.87794479 -0.08279527 42.06699908 -0.08411622 C45.70605521 -0.08513797 49.34494448 -0.09045793 52.98395741 -0.10893583 C68.67408908 -0.18394265 84.24076359 0.25878394 99.87676442 1.57182741 C100.61016828 1.63018314 101.34357214 1.68853887 102.09920037 1.74866295 C104.18122666 1.91833648 106.26070714 2.10625837 108.34050953 2.30113649 C109.52684735 2.40902121 110.71318516 2.51690592 111.93547261 2.62805986 C116.28079312 3.43546811 119.74989341 4.96258869 123.09746754 7.8638196 C124.87790166 11.62251385 124.86526884 15.16303554 124.22246754 19.2388196 C122.14024989 23.32888999 120.46174866 25.54291278 116.22246754 27.2388196 C114.11602223 27.46587038 114.11602223 27.46587038 111.89434254 27.4341321 C111.09512379 27.42768679 110.29590504 27.42124147 109.47246754 27.41460085 C108.64746754 27.39784304 107.82246754 27.38108522 106.97246754 27.3638196 C106.13199879 27.35479616 105.29153004 27.34577272 104.42559254 27.33647585 C102.3577615 27.31297777 100.2900776 27.27710867 98.22246754 27.2388196 C98.22246754 27.8988196 98.22246754 28.5588196 98.22246754 29.2388196 C67.32769169 30.4597282 36.45068714 31.39539835 5.53496754 31.8013196 C4.10238084 31.82026847 2.66979417 31.83921988 1.23720753 31.85817385 C-1.58325168 31.89537857 -4.40371195 31.93250286 -7.22417247 31.96960878 C-8.25041886 31.98313355 -8.25041886 31.98313355 -9.29739749 31.99693155 C-10.66086732 32.01488079 -12.02433803 32.03276342 -13.38780963 32.05057764 C-25.51964625 32.20987496 -37.64849137 32.43481806 -49.77753246 32.7388196 C-50.54987224 32.75687654 -51.32221202 32.77493349 -52.11795604 32.79353762 C-54.25461038 32.84412226 -56.39106101 32.89982451 -58.52753246 32.9575696 C-59.67737621 32.98786257 -60.82721996 33.01815554 -62.01190746 33.04936647 C-64.98874734 33.19913487 -67.9163327 33.43315887 -70.8805598 33.72295046 C-77.37354678 34.33380702 -83.86232457 34.56779691 -90.37909496 34.77397585 C-91.69826915 34.81731554 -93.01744335 34.86065523 -94.37659252 34.90530825 C-123.34024524 35.8406108 -152.31523902 36.51622039 -181.29382885 36.70216799 C-184.52463425 36.72356375 -187.75482776 36.75879912 -190.98535717 36.80598879 C-194.79766344 36.8606123 -198.60901861 36.88532476 -202.42170513 36.88703012 C-203.82078498 36.89231264 -205.21986992 36.90767581 -206.61871135 36.93403864 C-218.50644281 37.14584376 -218.50644281 37.14584376 -223.10419261 33.38530397 C-226.51629019 29.93012794 -226.96667195 26.60346029 -227.09003246 21.8638196 C-227.03420061 18.33710771 -226.88147036 16.45573348 -225.34003246 13.2388196 C-217.87941664 7.41589994 -207.68135571 7.2907428 -198.59662426 6.35844851 C-196.24357497 6.11675139 -193.89243842 5.86080312 -191.54120433 5.60210085 C-173.33018596 3.63118031 -155.11556859 2.94693974 -136.8156184 2.3638196 C-133.00072982 2.24195643 -129.18600662 2.11571271 -125.37128246 1.9888196 C-118.6294379 1.76740564 -111.88722007 1.56306344 -105.14459789 1.3671155 C-102.22854182 1.28225245 -99.31264155 1.19351163 -96.39679515 1.10173464 C-64.27015921 0.10025173 -32.13921862 0.01908282 0 0 Z " fill="#FED41A" transform="translate(753.7775324583054,796.7611804008484)"/>
<path d="M0 0 C6.31478268 -0.0042515 12.62941521 -0.01653617 18.94414848 -0.0424304 C46.71450279 -0.15365111 74.44853625 -0.15511332 102.17901176 1.5669446 C103.16906715 1.62542322 104.15912254 1.68390184 105.17917961 1.74415255 C107.92863052 1.91212574 110.67571881 2.10037704 113.42315239 2.29838991 C114.61126266 2.37242918 114.61126266 2.37242918 115.82337517 2.44796419 C121.30993184 2.88853577 125.63088839 4.16586267 129.89776176 7.8638196 C131.66845141 11.6019422 131.55999475 15.18053258 131.02276176 19.2388196 C129.38607087 23.00320866 127.55255178 25.18024159 124.02276176 27.2388196 C113.70171121 29.48229427 102.48169028 29.33236156 91.95708793 29.73540163 C90.89584552 29.77680332 89.8346031 29.81820501 88.74120182 29.8608613 C74.39012675 30.40010626 60.03318717 30.74531355 45.67680091 31.10733318 C38.94435072 31.27781812 32.21201844 31.45295253 25.47966915 31.62736821 C23.73793558 31.67247223 21.99620035 31.71751224 20.25446349 31.76248908 C3.73531404 32.18917952 -12.7829361 32.64515454 -29.30106729 33.10938191 C-39.66776818 33.40044202 -50.03467713 33.68395998 -60.40158707 33.96746111 C-68.42050876 34.18702066 -76.43931471 34.40994124 -84.45795113 34.63969851 C-116.85689292 35.56605716 -149.25817229 36.42471359 -181.67151886 36.58274889 C-184.44205456 36.5963306 -187.21230328 36.61842868 -189.98271042 36.64827776 C-193.77239467 36.68428803 -197.56118345 36.69396562 -201.35101753 36.69536257 C-202.46429358 36.7100395 -203.57756962 36.72471643 -204.7245813 36.73983812 C-212.19165784 36.6984317 -212.19165784 36.6984317 -216.09059578 34.41731691 C-219.41105085 30.58320281 -220.70377997 26.74284009 -221.60223824 21.8013196 C-220.63914234 16.31167299 -218.5149496 13.44408232 -213.97723824 10.2388196 C-210.61786324 9.27348757 -210.61786324 9.27348757 -206.72723824 8.6060071 C-206.02514229 8.48520784 -205.32304634 8.36440859 -204.59967476 8.23994875 C-196.92925297 6.97317085 -189.22253166 6.23526321 -181.47723824 5.6138196 C-180.73011574 5.55122957 -179.98299324 5.48863955 -179.21323067 5.42415285 C-167.03020056 4.40891373 -154.87554768 3.86738666 -142.65521675 3.58208132 C-135.30514126 3.40240378 -127.99813717 3.08277207 -120.66713387 2.52194643 C-107.28013417 1.51186669 -93.93300211 0.96361292 -80.51239449 0.6919446 C-79.52190102 0.67125162 -78.53140755 0.65055864 -77.51089913 0.62923861 C-51.67646961 0.10181769 -25.83890759 0.01705456 0 0 Z " fill="#FD9323" transform="translate(746.9772382378578,872.7611804008484)"/>
<path d="M0 0 C3.47425512 1.64125754 5.74649635 3.49852516 8.47387695 6.23095703 C9.35191483 7.10591827 10.2299527 7.98087952 11.13459778 8.88235474 C12.08600364 9.84066393 13.03722684 10.79915451 13.98828125 11.7578125 C14.97434043 12.74506539 15.96077133 13.73194714 16.94755554 14.71847534 C19.01592197 16.78840498 21.0808911 18.86164521 23.14331055 20.9375 C25.76728855 23.57836709 28.39769916 26.21270554 31.03051472 28.84475899 C33.07018517 30.88470366 35.10722111 32.92726248 37.14342308 34.97066879 C38.11113294 35.9415293 39.07942184 36.91181305 40.04833412 37.88147354 C41.41403558 39.24938319 42.77603731 40.62098345 44.13793945 41.99267578 C45.29565605 43.15611008 45.29565605 43.15611008 46.47676086 44.3430481 C48.47161728 46.44361695 50.37147912 48.57086633 52.26080322 50.76377869 C56.20945618 55.30547548 60.4210433 59.54700611 64.68920898 63.78686523 C65.52903824 64.62523422 66.36886749 65.46360321 67.23414612 66.32737732 C69.04396651 68.13341359 70.85494049 69.93829446 72.66695976 71.74212456 C75.53052954 74.59287538 78.39098675 77.44671449 81.25050354 80.30152893 C87.30985828 86.34984064 93.37347536 92.3938709 99.4375 98.4375 C106.00973559 104.98769467 112.58121154 111.53864169 119.1478582 118.09444004 C121.52607477 120.46848529 123.90537099 122.84142836 126.28710747 125.21194267 C128.93244732 127.84540706 131.57481462 130.48181982 134.21655273 133.11889648 C135.00971893 133.90689636 135.80288513 134.69489624 136.62008667 135.5067749 C137.3335878 136.22020554 138.04708893 136.93363617 138.7822113 137.66868591 C139.40731315 138.29156714 140.03241499 138.91444838 140.67645931 139.5562048 C142 141 142 141 142 142 C126.00517669 142.11704403 110.01049329 142.20509077 94.01534462 142.25906086 C86.58772042 142.28479145 79.16036304 142.31984254 71.73291016 142.37719727 C65.25559532 142.42719099 58.77847381 142.45932839 52.30097139 142.47044247 C48.87426897 142.47693451 45.4481194 142.49208263 42.021595 142.52865028 C38.18675539 142.56507646 34.35305187 142.56993932 30.51806641 142.56762695 C29.39452759 142.58560333 28.27098877 142.60357971 27.11340332 142.62210083 C19.78078621 142.57442383 14.07569954 141.25872843 8 137 C2.93021437 131.6555653 -0.25570829 126.1920427 -0.24050903 118.69120789 C-0.24325836 117.64097946 -0.24600769 116.59075104 -0.24884033 115.50869751 C-0.24164978 114.36718231 -0.23445923 113.22566711 -0.22705078 112.04956055 C-0.22734283 110.83938766 -0.22763489 109.62921478 -0.22793579 108.38237 C-0.22678287 105.07275587 -0.21676651 101.76339259 -0.20278788 98.45382285 C-0.1902681 94.99183122 -0.18910903 91.52983609 -0.18673706 88.06782532 C-0.18052595 81.51600577 -0.16412015 74.96425312 -0.14403808 68.41246301 C-0.12166757 60.95179711 -0.11068276 53.49112798 -0.10064721 46.03043687 C-0.07975358 30.6869192 -0.04458481 15.34346823 0 0 Z " fill="#FCFCFC" transform="translate(705,268)"/>
<path d="M0 0 C2.76673026 -0.00655537 5.53340418 -0.01801824 8.30011368 -0.03044128 C25.36321738 -0.09679914 42.36909512 -0.12392863 59.35220718 1.70429993 C60.98623741 1.87864059 60.98623741 1.87864059 62.65327835 2.0565033 C71.76746129 3.19792531 71.76746129 3.19792531 75.61392593 6.36836243 C78.46404961 10.64354794 78.09501803 14.35698638 77.61392593 19.36836243 C76.67642593 22.30586243 76.67642593 22.30586243 74.61392593 24.36836243 C68.97066627 26.85946163 63.3514717 27.87106075 57.23892593 28.21211243 C56.42897171 28.26634369 55.61901749 28.32057495 54.7845192 28.37644958 C52.06164764 28.55374057 49.33805705 28.71169581 46.61392593 28.86836243 C44.64939901 28.98980395 42.68488108 29.11139094 40.72037125 29.23310852 C17.77288885 30.61011828 -5.20466793 31.47406619 -28.17513657 32.3664093 C-28.94046329 32.39617072 -29.70579002 32.42593214 -30.49430847 32.45659542 C-36.6084416 32.6942111 -36.6084416 32.6942111 -39.49583817 32.80531502 C-47.41200535 33.11059226 -55.32255415 33.44686388 -63.22982407 33.93476868 C-72.12602972 34.47298965 -81.02014157 34.62378187 -89.93148422 34.66352844 C-91.75610627 34.67522263 -93.58068981 34.69593697 -95.40511703 34.72505188 C-98.09170503 34.76761687 -100.7773166 34.78385701 -103.46419907 34.79414368 C-104.27358932 34.81165176 -105.08297958 34.82915985 -105.91689682 34.84719849 C-111.20817154 34.82689152 -114.17438508 33.85619916 -118.38607407 30.36836243 C-121.51008829 25.96593316 -120.8692003 20.52937763 -120.38607407 15.36836243 C-119.06779563 11.85295326 -118.08695881 10.79021155 -114.89388657 8.86836243 C-82.00130532 -5.19706207 -35.07497217 0.06771752 0 0 Z " fill="#16CFFD" transform="translate(800.3860740661621,648.6316375732422)"/>
<path d="M0 0 C2.06566005 -0.00859359 4.13122178 -0.02241444 6.19684219 -0.03768539 C21.40731555 -0.14053907 36.46303639 0.27364128 51.60782242 1.635746 C52.63064158 1.72328927 52.63064158 1.72328927 53.67412376 1.81260109 C69.33256995 3.18651712 69.33256995 3.18651712 74.98672867 7.92871475 C76.66431121 11.67860513 76.58975008 15.26782152 76.04922867 19.30371475 C74.42522683 22.93838554 73.38809823 24.07780171 70.04922867 26.30371475 C67.52543789 26.75197616 65.07705841 27.09692997 62.53360367 27.3623085 C61.78230179 27.44516602 61.03099991 27.52802353 60.2569313 27.61339188 C51.62250506 28.5215361 42.96924325 28.96346231 34.29922867 29.36621475 C32.59454314 29.4498266 30.88987208 29.53373392 29.185215 29.61792374 C17.54713743 30.18321534 5.90671321 30.64080027 -5.74081039 30.96216202 C-10.43806984 31.09967538 -15.08769337 31.27569849 -19.75936508 31.79590225 C-33.70434335 33.30485821 -47.93709141 33.06249024 -61.95077133 33.30371475 C-63.06637436 33.3238765 -64.18197739 33.34403824 -65.33138657 33.36481094 C-72.64909793 33.49362261 -79.96625078 33.58758896 -87.28487778 33.64474869 C-89.72466967 33.6673544 -92.16439761 33.6985147 -94.60396957 33.73831558 C-98.05318637 33.79214896 -101.50119163 33.81358813 -104.95077133 33.82715225 C-106.50782791 33.86108833 -106.50782791 33.86108833 -108.09634018 33.89570999 C-115.20931366 33.87498472 -115.20931366 33.87498472 -119.07577133 30.89599991 C-122.56508497 26.07184207 -122.30902152 22.12757684 -121.95077133 16.30371475 C-120.89367313 12.16341345 -119.52189141 10.56423564 -115.95077133 8.30371475 C-80.04774154 -2.45221868 -37.10166466 0.12442299 0 0 Z " fill="#2367FB" transform="translate(801.9507713317871,576.6962852478027)"/>
<path d="M0 0 C3.28298929 -0.00440571 6.5657189 -0.01842919 9.84863281 -0.04101562 C26.2031327 -0.15073698 42.48593748 -0.12264297 58.77954102 1.44335938 C59.92770798 1.54332214 61.07587494 1.64328491 62.25883484 1.74627686 C70.7864253 2.70507279 70.7864253 2.70507279 73.91308594 5.79003906 C74.5122583 6.59860352 75.11143066 7.40716797 75.72875977 8.24023438 C76.05875977 8.57023438 76.38875977 8.90023437 76.72875977 9.24023438 C77.35094411 14.92364902 76.942118 19.36069039 73.72875977 24.24023438 C70.63754993 26.30104093 69.59740775 26.54940326 66.03930664 26.8203125 C65.07899536 26.89640747 64.11868408 26.97250244 63.12927246 27.05090332 C62.07929077 27.12369507 61.02930908 27.19648682 59.94750977 27.27148438 C58.84113159 27.35362183 57.73475342 27.43575928 56.59484863 27.52038574 C43.50096359 28.45693157 30.38992052 29.06651176 17.27633667 29.64904404 C15.18987856 29.74196598 13.10347753 29.83608325 11.01708984 29.93057251 C4.61161105 30.22063399 -1.79395989 30.50839744 -8.19976044 30.79126835 C-14.96264802 31.09004208 -21.72479134 31.40183004 -28.48651123 31.72605896 C-49.2458379 32.71742919 -70.00615539 33.46832305 -90.79003906 33.64663696 C-92.92343309 33.66716897 -95.05676731 33.69563609 -97.18994141 33.73251343 C-100.12895634 33.77984813 -103.06626307 33.79414895 -106.00561523 33.79882812 C-107.30816254 33.82798309 -107.30816254 33.82798309 -108.63702393 33.85772705 C-113.04543081 33.82494792 -114.72670063 33.67525788 -118.2878418 30.83032227 C-122.08917969 25.86621668 -121.84879832 21.34338548 -121.27124023 15.24023438 C-119.89624023 11.74023438 -119.89624023 11.74023438 -117.27124023 9.24023438 C-110.77299989 6.60053862 -103.87821159 5.53818024 -96.95874023 4.67773438 C-96.00217529 4.55479004 -95.04561035 4.4318457 -94.06005859 4.30517578 C-91.13190837 3.93671868 -88.2022151 3.58543808 -85.27124023 3.24023438 C-84.42658203 3.1382373 -83.58192383 3.03624023 -82.71166992 2.93115234 C-71.9829376 1.66655705 -61.26203198 1.04363613 -50.46655273 0.70117188 C-49.80917807 0.6801667 -49.1518034 0.65916153 -48.47450829 0.63751984 C-32.31876122 0.13237658 -16.1627377 0.01844571 0 0 Z " fill="#8037EA" transform="translate(801.271240234375,504.759765625)"/>
<path d="M0 0 C1.125 3.75 1.125 3.75 0 6 C-0.66 6 -1.32 6 -2 6 C-2 6.66 -2 7.32 -2 8 C-2.66 8 -3.32 8 -4 8 C-3.99937608 8.6558343 -3.99875216 9.31166861 -3.99810933 9.98737668 C-3.93035379 81.35727264 -3.86752802 152.7271723 -3.83062744 224.09709167 C-3.83007521 225.16243909 -3.82952298 226.2277865 -3.82895402 227.32541716 C-3.81698363 250.47581116 -3.80590273 273.62620549 -3.79573868 296.77660035 C-3.79074914 308.12881763 -3.78556295 319.48103481 -3.78027344 330.83325195 C-3.7797504 331.96296075 -3.77922737 333.09266955 -3.77868848 334.25661195 C-3.76162957 370.90302372 -3.73157428 407.54941088 -3.69481112 444.19580773 C-3.6571146 481.84078582 -3.6324661 519.48575028 -3.62434004 557.13074693 C-3.62318735 562.44242169 -3.6218848 567.7540964 -3.62049103 573.0657711 C-3.62022134 574.1112306 -3.61995164 575.15669009 -3.61967378 576.23383018 C-3.61493873 593.09299175 -3.59636454 609.95211132 -3.57267186 626.81125573 C-3.54917167 643.74213186 -3.5401158 660.67296615 -3.54599449 677.60385803 C-3.54904707 687.67463848 -3.54083477 697.74526636 -3.51680983 707.81601938 C-3.50187469 714.53273908 -3.50129959 721.24935819 -3.51267275 727.96608467 C-3.51874539 731.79999741 -3.51831728 735.63362045 -3.50046727 739.46750281 C-3.48143392 743.58659511 -3.49295467 747.70501533 -3.50780869 751.82412434 C-3.49730063 753.02912845 -3.48679258 754.23413256 -3.4759661 755.47565195 C-3.48495527 756.56605723 -3.49394444 757.65646252 -3.50320601 758.77991039 C-3.50258209 759.72281326 -3.50195817 760.66571613 -3.50131534 761.63719182 C-4 764 -4 764 -6.03104962 765.8262556 C-6.68080325 766.21359125 -7.33055687 766.6009269 -8 767 C-8.80163937 763.47531067 -9.12564225 760.22527363 -9.1276505 756.61355239 C-9.13066647 755.53698236 -9.13368244 754.46041233 -9.1367898 753.35121897 C-9.13502033 752.17197516 -9.13325086 750.99273135 -9.13142776 749.77775288 C-9.1334804 748.51714122 -9.13553303 747.25652957 -9.13764787 745.95771757 C-9.14321761 742.44546237 -9.14254154 738.93323154 -9.14087028 735.42097333 C-9.14013982 731.60479353 -9.14516061 727.78862063 -9.1494453 723.97244376 C-9.15703028 716.39762597 -9.15921861 708.82281523 -9.15977435 701.24799404 C-9.16068749 692.17733342 -9.16735354 683.10667932 -9.17412117 674.03602151 C-9.19018826 652.11184209 -9.19608513 630.18766337 -9.20086992 608.26347913 C-9.20320503 597.89448907 -9.20680757 587.52549957 -9.2105653 577.15650994 C-9.22340104 541.67089087 -9.23412052 506.18527211 -9.2375679 470.69965076 C-9.23778954 468.47169202 -9.23801132 466.24373327 -9.23823325 464.01577453 C-9.23845389 461.78239962 -9.23867438 459.54902471 -9.2388947 457.31564981 C-9.23933726 452.8350263 -9.23978437 448.3544028 -9.24023438 443.8737793 C-9.24034377 442.76284351 -9.24045316 441.65190773 -9.24056586 440.50730722 C-9.24419733 404.47676297 -9.26012067 368.44623882 -9.28342474 332.41570226 C-9.30801126 294.33282869 -9.32174018 256.24996661 -9.32293582 218.16708487 C-9.32310728 213.98794822 -9.32332271 209.80881156 -9.32357025 205.62967491 C-9.32362602 204.60063454 -9.32368179 203.57159416 -9.32373925 202.51137074 C-9.32489068 185.93933572 -9.33592047 169.36732131 -9.35045731 152.79529326 C-9.36481145 136.14383929 -9.36806541 119.49241179 -9.36001733 102.84095333 C-9.35555606 92.94494621 -9.35944156 83.04902444 -9.37525584 73.15302852 C-9.3849912 66.54404293 -9.3838414 59.93511726 -9.37381961 53.32613225 C-9.36841717 49.55962313 -9.36775083 45.79327814 -9.38032833 42.02678249 C-9.39376811 37.9682126 -9.38397645 33.91002698 -9.3719368 29.85145283 C-9.37953199 28.68391485 -9.38712718 27.51637687 -9.39495254 26.31345895 C-9.33187356 16.49672524 -8.12145177 8.4810464 -1.20703125 1.1796875 C-0.80871094 0.79039062 -0.41039062 0.40109375 0 0 Z " fill="#E1E2E3" transform="translate(343,230)"/>
<path d="M0 0 C0.33 0 0.66 0 1 0 C1.00040018 0.65616673 1.00080037 1.31233346 1.00121268 1.98838402 C1.04488427 73.42160438 1.09225526 144.85482192 1.15898132 216.2880249 C1.16047467 217.88841146 1.16047467 217.88841146 1.16199819 219.52112906 C1.18365637 242.70787901 1.20597904 265.89462828 1.22898628 289.08137693 C1.24026487 300.45203762 1.25139661 311.82269846 1.26245117 323.19335938 C1.26410502 324.89064185 1.26410502 324.89064185 1.26579228 326.62221287 C1.30146527 363.30270366 1.32744021 399.98319354 1.34838969 436.66369544 C1.36996793 474.35547147 1.40132269 512.047227 1.44499113 549.73898422 C1.45115344 555.06182667 1.4572039 560.38466924 1.46318626 565.7075119 C1.46436715 566.75513089 1.46554803 567.80274988 1.46676469 568.8821149 C1.48549128 585.75063754 1.49390191 602.61915035 1.49846124 619.48768212 C1.50326405 636.44336907 1.51891954 653.39901843 1.54566566 670.35468522 C1.56122877 680.43019952 1.56845801 690.50563968 1.56376929 700.58116534 C1.56145684 707.31255341 1.56999484 714.04387144 1.58732411 720.77523745 C1.59688689 724.61008927 1.60176169 728.44478632 1.59339563 732.27964452 C1.58448415 736.41505635 1.59877631 740.55007057 1.61523914 744.68545914 C1.60896245 745.87002882 1.60268575 747.0545985 1.59621885 748.27506423 C1.6523635 755.9221176 2.85545044 762.67250476 5 770 C5.25433556 770.93996563 5.50867112 771.87993126 5.77071382 772.8483807 C7.19694842 778.11905416 9.18273844 782.33694639 12 787 C12 787.66 12 788.32 12 789 C11.34 789 10.68 789 10 789 C10.33 790.32 10.66 791.64 11 793 C10.34 792.67 9.68 792.34 9 792 C9 790.68 9 789.36 9 788 C5.7 788 2.4 788 -1 788 C-1 778.76 -1 769.52 -1 760 C-10.24 760 -19.48 760 -29 760 C-29 751.09 -29 742.18 -29 733 C-20.09 733 -11.18 733 -2 733 C-2 723.76 -2 714.52 -2 705 C-1.67 705 -1.34 705 -1 705 C-0.67 472.35 -0.34 239.7 0 0 Z " fill="#DCDEE0" transform="translate(280,243)"/>
<path d="M0 0 C0.33 0 0.66 0 1 0 C1.33 74.58 1.66 149.16 2 226 C2.99 225.01 2.99 225.01 4 224 C7.08362605 222.93963754 9.96089694 222.88349359 13.203125 222.90234375 C14.08645508 222.90484131 14.96978516 222.90733887 15.87988281 222.90991211 C16.99202148 222.91901611 18.10416016 222.92812012 19.25 222.9375 C24.57125 222.9684375 24.57125 222.9684375 30 223 C30 231.91 30 240.82 30 250 C21.09 250 12.18 250 3 250 C3 259.24 3 268.48 3 278 C11.58 278 20.16 278 29 278 C29 278.33 29 278.66 29 279 C20.42 279 11.84 279 3 279 C3 297.15 3 315.3 3 334 C2.34 334 1.68 334 1 334 C0.67 359.08 0.34 384.16 0 410 C-0.33 410 -0.66 410 -1 410 C-1.03176513 380.10417236 -1.05135171 350.20834232 -1.0625 320.3125 C-1.06315145 318.61687258 -1.06315145 318.61687258 -1.06381607 316.88699007 C-1.09210678 241.15250602 -0.89852791 165.42092773 -0.5 89.6875 C-0.49103943 87.98103389 -0.49103943 87.98103389 -0.48189783 86.24009371 C-0.33076469 57.49334096 -0.17077162 28.74664278 0 0 Z " fill="#D4D5D8" transform="translate(972,586)"/>
<path d="M0 0 C76.725 0.495 76.725 0.495 155 1 C155 30.7 155 60.4 155 91 C105.17 91 55.34 91 4 91 C4 90.67 4 90.34 4 90 C53.5 90 103 90 154 90 C154 60.96 154 31.92 154 2 C149.545 2.495 149.545 2.495 145 3 C147.64 3.33 150.28 3.66 153 4 C153 4.66 153 5.32 153 6 C145.4353581 7.01583663 138.00045496 7.15432197 130.3737793 7.16113281 C129.01935189 7.16577054 127.66492576 7.17079646 126.3105011 7.17617798 C122.65798984 7.18919911 119.00549686 7.19572486 115.35296607 7.20018864 C113.06888891 7.20313187 110.78481663 7.20723863 108.50074196 7.21169281 C101.34709057 7.22533124 94.19345047 7.23501965 87.03978699 7.2388947 C78.79286156 7.24338771 70.54610085 7.26100812 62.29922551 7.2898953 C55.91176982 7.31149169 49.5243606 7.32159764 43.13686877 7.32293582 C39.32613787 7.32398392 35.51556259 7.32989464 31.70487022 7.34775543 C28.12689363 7.36420422 24.54919037 7.36640743 20.9711895 7.35761642 C19.03256115 7.35647666 17.09394198 7.3702126 15.15536499 7.3843689 C14.00171951 7.37879974 12.84807404 7.37323059 11.6594696 7.36749268 C10.65718669 7.36895924 9.65490377 7.3704258 8.62224865 7.3719368 C5.56408581 6.93817042 4.16344252 6.18742363 2 4 C2 3.01 2 2.02 2 1 C1.34 0.67 0.68 0.34 0 0 Z " fill="#E3E5E7" transform="translate(443,531)"/>
<path d="M0 0 C8.91 0 17.82 0 27 0 C27 8.58 27 17.16 27 26 C80.79 26 134.58 26 190 26 C190 26.33 190 26.66 190 27 C89.02 27 -11.96 27 -116 27 C-116 26.67 -116 26.34 -116 26 C-77.72 25.67 -39.44 25.34 0 25 C0 16.75 0 8.5 0 0 Z " fill="#DADBDD" transform="translate(474,140)"/>
<path d="M0 0 C96.03 0 192.06 0 291 0 C291 43.23 291 86.46 291 131 C224.34 131 157.68 131 89 131 C89 130.67 89 130.34 89 130 C154.34 130 219.68 130 287 130 C287.33 87.43 287.66 44.86 288 1 C192.96 1 97.92 1 0 1 C0 0.67 0 0.34 0 0 Z " fill="#B6B9BE" transform="translate(360,222)"/>
<path d="M0 0 C0.144375 0.639375 0.28875 1.27875 0.4375 1.9375 C0.81007181 3.97545146 0.81007181 3.97545146 2 5 C1.94921875 7.03125 1.94921875 7.03125 1.6875 9.5 C1.60886719 10.3146875 1.53023438 11.129375 1.44921875 11.96875 C1.22685547 12.97421875 1.22685547 12.97421875 1 14 C0.01 14.495 0.01 14.495 -1 15 C-1.33 266.13 -1.66 517.26 -2 776 C-2.33 776 -2.66 776 -3 776 C-3.05141686 703.44142667 -3.09911553 630.88285115 -3.12702942 558.32426453 C-3.12744359 557.25042952 -3.12785776 556.17659452 -3.12828448 555.07021906 C-3.13726314 531.73307195 -3.14557369 508.39592465 -3.15319599 485.05877705 C-3.15693801 473.61429859 -3.16082767 462.16982018 -3.16479492 450.7253418 C-3.1651872 449.58647669 -3.16557948 448.44761158 -3.16598364 447.27423541 C-3.17876841 410.35821458 -3.20130289 373.44220752 -3.22889166 336.52619504 C-3.25719047 298.59121437 -3.27565657 260.65624132 -3.28174497 222.72125027 C-3.28260944 217.36359195 -3.28358635 212.00593366 -3.28463173 206.64827538 C-3.284834 205.59380806 -3.28503627 204.53934074 -3.28524467 203.45291987 C-3.28879026 186.47672325 -3.30270563 169.5005502 -3.3204961 152.5243632 C-3.33815894 135.45889302 -3.34490365 118.39344621 -3.34050413 101.3279672 C-3.33822187 91.18821869 -3.34431039 81.04855568 -3.36239263 70.9088226 C-3.37365011 64.13336325 -3.37398545 57.35795984 -3.36549544 50.58249661 C-3.36097066 46.72327567 -3.36114191 42.86421634 -3.37464955 39.00501279 C-3.38911021 34.84178121 -3.38020156 30.67891747 -3.36914349 26.51567554 C-3.37702453 25.32571115 -3.38490557 24.13574676 -3.39302543 22.90972283 C-3.34510045 14.92744795 -2.09082728 7.69862406 0 0 Z " fill="#242833" transform="translate(284,225)"/>
<path d="M0 0 C8.91 0 17.82 0 27 0 C27 8.91 27 17.82 27 27 C18.09 27 9.18 27 0 27 C0 18.09 0 9.18 0 0 Z " fill="#FDFDFD" transform="translate(307,1115)"/>
<path d="M0 0 C0.33 0.99 0.66 1.98 1 3 C-3.68086946 4.43291922 -8.13908069 5.3194713 -13 6 C-13.33 6.33 -13.66 6.66 -14 7 C-18.09742993 7.21818246 -22.1980264 7.18579116 -26.30078125 7.18530273 C-28.35958694 7.18748367 -30.41785212 7.20562031 -32.4765625 7.22460938 C-33.77078125 7.22654297 -35.065 7.22847656 -36.3984375 7.23046875 C-37.59130371 7.23457764 -38.78416992 7.23868652 -40.01318359 7.24291992 C-43 7 -43 7 -46 5 C-46 5.66 -46 6.32 -46 7 C-46.68626465 7.02505615 -47.3725293 7.0501123 -48.07958984 7.07592773 C-51.17825817 7.19171427 -54.27660923 7.31451885 -57.375 7.4375 C-58.45523438 7.47681641 -59.53546875 7.51613281 -60.6484375 7.55664062 C-61.6796875 7.59853516 -62.7109375 7.64042969 -63.7734375 7.68359375 C-64.72653809 7.72025146 -65.67963867 7.75690918 -66.66162109 7.79467773 C-69.02132349 7.85763465 -69.02132349 7.85763465 -71 9 C-73.62627133 9.08667255 -76.22562483 9.11560135 -78.8515625 9.09765625 C-79.62559418 9.0962413 -80.39962585 9.09482635 -81.19711304 9.09336853 C-83.67311442 9.08776403 -86.14902588 9.07521083 -88.625 9.0625 C-90.30208203 9.05748558 -91.97916547 9.05292257 -93.65625 9.04882812 C-97.77086806 9.03779315 -101.88541878 9.02052554 -106 9 C-106 8.34 -106 7.68 -106 7 C-117.22 7.33 -128.44 7.66 -140 8 C-139.01 8.99 -139.01 8.99 -138 10 C-154.17 10.33 -170.34 10.66 -187 11 C-187 10.67 -187 10.34 -187 10 C-208.12 10 -229.24 10 -251 10 C-251 9.67 -251 9.34 -251 9 C-220.75794462 7.92310287 -190.51360329 7.0193974 -160.26171875 6.26953125 C-158.35692875 6.22213838 -158.35692875 6.22213838 -156.41365814 6.17378807 C-144.75959555 5.8839541 -133.10551308 5.59506992 -121.45111084 5.31918335 C-95.8947509 4.71411301 -70.34580325 4.06323617 -44.8046875 2.9765625 C-43.36035434 2.91579781 -43.36035434 2.91579781 -41.88684273 2.85380554 C-27.88883804 2.25764473 -13.94153788 1.42291483 0 0 Z " fill="#EEF9F3" transform="translate(872,746)"/>
<path d="M0 0 C0.33 0 0.66 0 1 0 C1 27.06 1 54.12 1 82 C11.42078125 81.98839844 21.8415625 81.97679687 32.578125 81.96484375 C39.167969 81.95973605 45.75781156 81.9548809 52.34765625 81.95117188 C62.81429534 81.94523361 73.28092639 81.93824506 83.74755859 81.92456055 C91.36966163 81.91459983 98.99175816 81.90814326 106.61386752 81.90591151 C110.65047686 81.90460677 114.68706758 81.9015358 118.72367096 81.89426994 C122.52224091 81.88748787 126.32078454 81.88538751 130.11935997 81.88689232 C131.51415589 81.88661698 132.90895268 81.88462481 134.30374336 81.88079453 C136.20722951 81.87582324 138.11072975 81.87761039 140.01422119 81.87974548 C141.61261023 81.87836279 141.61261023 81.87836279 143.24328995 81.87695217 C145.66698859 81.98513578 147.68801913 82.29969763 150 83 C150 83.66 150 84.32 150 85 C100.5 85 51 85 0 85 C0 56.95 0 28.9 0 0 Z " fill="#3C424E" transform="translate(481,401)"/>
<path d="M0 0 C6.83765404 0.01347346 13.67527626 0.01569401 20.51294178 0.01504892 C28.83216044 0.01437088 37.15136037 0.0212962 45.47057331 0.03049552 C47.82020958 0.03260295 50.16984274 0.03333321 52.51947987 0.03373444 C56.20962137 0.03474937 59.89972175 0.04093792 63.58984959 0.05090058 C65.55575017 0.05513233 67.5216592 0.05466124 69.48756421 0.05395806 C78.13137518 0.08448628 86.68060291 0.53526901 95.29542553 1.20059502 C95.29542553 1.53059502 95.29542553 1.86059502 95.29542553 2.20059502 C84.07542553 2.20059502 72.85542553 2.20059502 61.29542553 2.20059502 C61.29542553 2.53059502 61.29542553 2.86059502 61.29542553 3.20059502 C60.7443532 3.20390517 60.19328087 3.20721531 59.62550938 3.21062577 C46.20423127 3.29191738 32.78306658 3.3841541 19.36194432 3.48812211 C12.87153142 3.53807072 6.38113469 3.58440111 -0.10935962 3.62247002 C-6.37287508 3.65934062 -12.63625485 3.70570582 -18.89965427 3.75865853 C-21.28942346 3.77719296 -23.67922172 3.79230442 -26.06903446 3.80393898 C-29.4159509 3.82081738 -32.76255722 3.84985707 -36.10935962 3.88174736 C-37.59182178 3.88498765 -37.59182178 3.88498765 -39.10423267 3.88829339 C-44.07097217 3.94875961 -48.02090129 4.36961701 -52.70457447 6.20059502 C-56.16490933 6.40414413 -58.40862168 6.29924595 -61.70457447 5.20059502 C-63.36819863 4.85239461 -65.03452618 4.5165501 -66.70457447 4.20059502 C-66.70457447 4.86059502 -66.70457447 5.52059502 -66.70457447 6.20059502 C-67.36457447 6.20059502 -68.02457447 6.20059502 -68.70457447 6.20059502 C-68.70457447 5.54059502 -68.70457447 4.88059502 -68.70457447 4.20059502 C-70.64010181 4.3610833 -70.64010181 4.3610833 -72.61473072 4.52481377 C-74.3321145 4.64681371 -76.04956644 4.7678568 -77.76707447 4.88809502 C-79.03841236 4.99734307 -79.03841236 4.99734307 -80.33543384 5.10879815 C-86.03048162 5.48260437 -89.64352038 4.87189765 -94.70457447 2.20059502 C-95.03457447 3.19059502 -95.36457447 4.18059502 -95.70457447 5.20059502 C-100.65457447 5.20059502 -105.60457447 5.20059502 -110.70457447 5.20059502 C-110.70457447 4.87059502 -110.70457447 4.54059502 -110.70457447 4.20059502 C-114.33457447 3.87059502 -117.96457447 3.54059502 -121.70457447 3.20059502 C-121.70457447 2.87059502 -121.70457447 2.54059502 -121.70457447 2.20059502 C-81.12440465 0.13393551 -40.62073081 -0.08411142 0 0 Z " fill="#45C775" transform="translate(750.7045744657516,719.7994049787521)"/>
<path d="M0 0 C7.45912452 0.01146921 14.91825033 0.01674775 22.37738156 0.02170396 C37.63841053 0.03197278 52.89942285 0.04939308 68.1604389 0.07202756 C68.1604389 0.40202756 68.1604389 0.73202756 68.1604389 1.07202756 C44.0704389 1.40202756 19.9804389 1.73202756 -4.8395611 2.07202756 C-5.1695611 2.73202756 -5.4995611 3.39202756 -5.8395611 4.07202756 C-13.85406183 4.24914418 -21.868683 4.41508855 -29.88370097 4.56680334 C-33.60545564 4.63760225 -37.32705069 4.71223665 -41.04854548 4.79566038 C-44.64048312 4.87603832 -48.23248977 4.94630989 -51.82476771 5.00960004 C-53.19475036 5.03550899 -54.56466934 5.06504924 -55.93449366 5.09829175 C-57.8541404 5.14425476 -59.77410999 5.17607339 -61.69405329 5.20728147 C-62.78659419 5.22948759 -63.87913508 5.2516937 -65.00478327 5.27457273 C-67.91298906 5.06678113 -69.29952564 4.37933342 -71.8395611 3.07202756 C-74.42475162 2.7841305 -74.42475162 2.7841305 -77.25069392 2.84497678 C-78.87192164 2.84520338 -78.87192164 2.84520338 -80.52590144 2.84543455 C-82.26670985 2.8609184 -82.26670985 2.8609184 -84.0426861 2.87671506 C-85.23561274 2.87954496 -86.42853938 2.88237485 -87.6576153 2.8852905 C-91.46836586 2.89648704 -95.27888156 2.92159104 -99.0895611 2.94702756 C-101.67289104 2.95705803 -104.25622467 2.96618376 -106.8395611 2.97437131 C-113.1729746 2.99642467 -119.50625107 3.02989721 -125.8395611 3.07202756 C-125.8395611 2.74202756 -125.8395611 2.41202756 -125.8395611 2.07202756 C-113.03868976 1.28046186 -100.25160353 0.78175894 -87.42940485 0.51343381 C-86.44977211 0.4923764 -85.47013937 0.47131898 -84.46082079 0.44962347 C-56.31061962 -0.13672914 -28.15470541 -0.04408153 0 0 Z " fill="#FCA94D" transform="translate(753.8395611047745,872.9279724359512)"/>
<path d="M0 0 C0 0.33 0 0.66 0 1 C-12.375 1.495 -12.375 1.495 -25 2 C-23.35 2.33 -21.7 2.66 -20 3 C-20 3.33 -20 3.66 -20 4 C-22.31 4 -24.62 4 -27 4 C-27 3.34 -27 2.68 -27 2 C-38.22 2.33 -49.44 2.66 -61 3 C-60.01 3.99 -60.01 3.99 -59 5 C-75.17 5.33 -91.34 5.66 -108 6 C-108 5.67 -108 5.34 -108 5 C-129.12 5 -150.24 5 -172 5 C-172 4.67 -172 4.34 -172 4 C-137.67941512 2.80573828 -103.35636868 1.78192681 -69.02527237 0.94179535 C-66.34318835 0.87575563 -63.66113898 0.80844649 -60.97909546 0.74078369 C-40.64824982 0.22975084 -20.33869498 -0.15227206 0 0 Z " fill="#C9EED9" transform="translate(793,751)"/>
<path d="M0 0 C0.66 0.33 1.32 0.66 2 1 C2 42.91 2 84.82 2 128 C1.01 128 0.02 128 -1 128 C-1.8864009 124.95405607 -2.12365326 122.24484038 -2.12025452 119.07720947 C-2.12162918 118.08725479 -2.12300385 117.09730011 -2.12442017 116.0773468 C-2.12082489 114.9976915 -2.11722961 113.91803619 -2.11352539 112.80566406 C-2.11367142 111.6639122 -2.11381744 110.52216034 -2.1139679 109.34580994 C-2.11327081 105.56906235 -2.10548787 101.79236398 -2.09765625 98.015625 C-2.09579135 95.39817329 -2.09436779 92.78072123 -2.09336853 90.16326904 C-2.09026154 83.97622428 -2.08205667 77.7891972 -2.07201904 71.60216022 C-2.06083828 64.55746393 -2.0553425 57.51276679 -2.05032361 50.46806383 C-2.03987354 35.9787001 -2.02228632 21.4893503 -2 7 C-1.67 7 -1.34 7 -1 7 C-0.67 4.69 -0.34 2.38 0 0 Z " fill="#353C47" transform="translate(704,267)"/>
<path d="M0 0 C-0.66 1.32 -1.32 2.64 -2 4 C-12.23 4 -22.46 4 -33 4 C-33 3.34 -33 2.68 -33 2 C-34.15371094 2.03029297 -35.30742188 2.06058594 -36.49609375 2.09179688 C-63.66975557 2.7952276 -90.81750058 3.1458409 -118 3 C-118 2.67 -118 2.34 -118 2 C-94.02753749 1.2768032 -70.05258239 0.82505352 -46.07223892 0.47089767 C-43.82186776 0.43763845 -41.57150196 0.4040325 -39.32113647 0.37039185 C-35.71434018 0.31668329 -32.10752767 0.26422641 -28.50069809 0.21280289 C-26.52651132 0.18458679 -24.55233323 0.15576573 -22.57815552 0.12692261 C-15.05152073 0.02274708 -7.52733773 -0.02295267 0 0 Z " fill="#FDF4C9" transform="translate(806,827)"/>
<path d="M0 0 C3.89395116 1.58399589 6.51152235 4.24196943 9.41113281 7.18408203 C9.93840973 7.71106689 10.46568665 8.23805176 11.00894165 8.78100586 C12.74512072 10.51857476 14.474114 12.26311314 16.203125 14.0078125 C17.40766437 15.21608322 18.61264697 16.42391222 19.8180542 17.63131714 C22.98548106 20.80637077 26.14685513 23.98738522 29.30700684 27.16967773 C32.53437089 30.41752076 35.76742228 33.65969133 39 36.90234375 C45.33891303 43.26268982 51.67144624 49.62934753 58 56 C57.34 56.66 56.68 57.32 56 58 C48.69265508 50.73891339 41.39065913 43.47249516 34.09552002 36.19914436 C30.70824212 32.82232162 27.31912149 29.44739171 23.92578125 26.07666016 C20.65356169 22.8261073 17.38619465 19.57075022 14.12219238 16.31194687 C12.87354577 15.06700714 11.62313491 13.82383444 10.37097168 12.58243179 C8.62287531 10.84876828 6.88105209 9.10903347 5.140625 7.36767578 C4.61698364 6.85122498 4.09334229 6.33477417 3.55383301 5.80267334 C0 2.22810432 0 2.22810432 0 0 Z " fill="#202735" transform="translate(838,328)"/>
<path d="M0 0 C0.495 0.99 0.495 0.99 1 2 C4.47517129 3.15839043 7.6727002 3.22801218 11.29296875 3.31640625 C11.99899734 3.33718735 12.70502594 3.35796844 13.43244934 3.37937927 C15.68403551 3.44467491 17.93573662 3.50366647 20.1875 3.5625 C21.7155066 3.60570425 23.24350164 3.64931916 24.77148438 3.69335938 C28.51420562 3.80033574 32.2570423 3.90165922 36 4 C36 4.33 36 4.66 36 5 C16.40315721 5.85456526 -3.13463056 6.12829839 -22.75 6.0625 C-25.41666581 6.05687206 -28.083331 6.0529051 -30.75 6.04882812 C-37.16668791 6.03801131 -43.58333924 6.02144463 -50 6 C-50 5.67 -50 5.34 -50 5 C-49.20827393 4.97494385 -48.41654785 4.9498877 -47.60083008 4.92407227 C-44.00456637 4.80784271 -40.4085472 4.68523824 -36.8125 4.5625 C-35.56662109 4.52318359 -34.32074219 4.48386719 -33.03710938 4.44335938 C-31.83505859 4.40146484 -30.63300781 4.35957031 -29.39453125 4.31640625 C-28.28956299 4.27974854 -27.18459473 4.24309082 -26.04614258 4.20532227 C-23.27407028 4.01847344 -20.70457127 3.61837634 -18 3 C-18 2.34 -18 1.68 -18 1 C-16.78441406 1.01160156 -15.56882812 1.02320313 -14.31640625 1.03515625 C-12.73177236 1.04453278 -11.14713682 1.05363313 -9.5625 1.0625 C-8.76005859 1.07087891 -7.95761719 1.07925781 -7.13085938 1.08789062 C-5.08704779 1.0965143 -3.04316098 1.0522815 -1 1 C-0.67 0.67 -0.34 0.34 0 0 Z " fill="#48C87C" transform="translate(585,751)"/>
<path d="M0 0 C1.77160995 0.03014442 1.77160995 0.03014442 3.57901001 0.06089783 C5.49935562 0.10145042 5.49935562 0.10145042 7.45849609 0.14282227 C8.76523285 0.16643326 10.0719696 0.19004425 11.41830444 0.21437073 C14.89377484 0.27722616 18.36909543 0.34628856 21.84442139 0.41662598 C25.39018934 0.48729632 28.93606358 0.55212105 32.48193359 0.61743164 C39.44038245 0.74646272 46.39869058 0.88204862 53.35693359 1.02172852 C53.35693359 1.35172852 53.35693359 1.68172852 53.35693359 2.02172852 C27.60731507 2.84977151 1.88838422 3.1572263 -23.87371826 3.09039307 C-28.38797502 3.07986935 -32.90223824 3.07553561 -37.41650391 3.07055664 C-46.15870789 3.0600644 -54.90088243 3.04317141 -63.64306641 3.02172852 C-63.64306641 2.69172852 -63.64306641 2.36172852 -63.64306641 2.02172852 C-62.59736984 2.00626732 -62.59736984 2.00626732 -61.5305481 1.99049377 C-54.96768775 1.89260398 -48.40491766 1.79010177 -41.84221077 1.68238926 C-38.46808273 1.62717383 -35.09394601 1.57375608 -31.71972656 1.52441406 C-27.84252375 1.46683184 -23.9654641 1.40310285 -20.08837891 1.33813477 C-18.87376984 1.32142227 -17.65916077 1.30470978 -16.40774536 1.28749084 C-15.28673431 1.26754562 -14.16572327 1.2476004 -13.01074219 1.22705078 C-12.02034943 1.2115065 -11.02995667 1.19596222 -10.009552 1.1799469 C-6.44648722 0.94172768 -3.76502055 -0.07209614 0 0 Z " fill="#FC7674" transform="translate(597.64306640625,981.978271484375)"/>
<path d="M0 0 C3.27196452 1.43258772 5.43203956 3.18825316 7.94238281 5.71533203 C9.08311249 6.8562883 9.08311249 6.8562883 10.24688721 8.02029419 C11.05744568 8.84117523 11.86800415 9.66205627 12.703125 10.5078125 C13.54091492 11.34843231 14.37870483 12.18905212 15.24188232 13.05514526 C17.91598431 15.74044001 20.58304724 18.43260655 23.25 21.125 C25.06204062 22.94707155 26.87453518 24.76869177 28.6875 26.58984375 C33.13028036 31.05467252 37.56730165 35.52516283 42 40 C40.1875 41.0625 40.1875 41.0625 38 42 C37.01 41.67 36.02 41.34 35 41 C35.66 40.34 36.32 39.68 37 39 C36.53646118 38.5409024 36.07292236 38.08180481 35.59533691 37.60879517 C30.78820598 32.84578189 25.98802709 28.07584526 21.19189453 23.30175781 C19.39908761 21.51903197 17.60449301 19.7381021 15.80810547 17.95898438 C13.23197101 15.40700562 10.66225508 12.84871697 8.09375 10.2890625 C7.28442017 9.49005524 6.47509033 8.69104797 5.64123535 7.86782837 C4.90046753 7.12721161 4.15969971 6.38659485 3.39648438 5.62353516 C2.73918335 4.97067535 2.08188232 4.31781555 1.40466309 3.64517212 C0 2 0 2 0 0 Z " fill="#1E2634" transform="translate(758,247)"/>
<path d="M0 0 C0.87371246 0.16076523 1.74742493 0.32153046 2.64761353 0.48716736 C5.6970784 0.95366045 8.55841883 1.1547158 11.63818359 1.20532227 C12.71885101 1.22526749 13.79951843 1.24521271 14.91293335 1.26576233 C16.06314972 1.28247482 17.21336609 1.29918732 18.3984375 1.31640625 C20.18358261 1.3475779 20.18358261 1.3475779 22.00479126 1.37937927 C25.79480385 1.44460095 29.58488391 1.50363234 33.375 1.5625 C35.94922564 1.60571126 38.52344453 1.64932638 41.09765625 1.69335938 C47.39836682 1.80025425 53.69914404 1.90207088 60 2 C60 2.33 60 2.66 60 3 C58.84814209 3.02505615 57.69628418 3.0501123 56.50952148 3.07592773 C51.15211084 3.19340186 45.79478979 3.31464509 40.4375 3.4375 C39.47317047 3.45956512 38.50884094 3.48163025 37.51528931 3.50436401 C25.86068757 3.77419548 14.21951219 4.11165923 2.57568359 4.69287109 C-6.94773439 5.14200245 -16.46858394 5.08852708 -26 5 C-26 4.67 -26 4.34 -26 4 C-17.33003296 2.83288905 -8.72630608 2.90255986 0 3 C0 2.01 0 1.02 0 0 Z " fill="#FDF0B9" transform="translate(635,795)"/>
<path d="M0 0 C0 0.33 0 0.66 0 1 C-7.66585133 2.65428776 -14.95115965 3.14260836 -22.75146484 3.03125 C-28.55347647 2.95762375 -34.23579466 3.3028175 -40 4 C-39.67 4.66 -39.34 5.32 -39 6 C-41.08326131 6.02709444 -43.16662441 6.04643873 -45.25 6.0625 C-46.99023438 6.07990234 -46.99023438 6.07990234 -48.765625 6.09765625 C-51.44945397 6.01662277 -53.44908687 5.69177305 -56 5 C-57.41534778 4.93543121 -58.83337689 4.91388961 -60.25 4.9375 C-61.4875 4.958125 -62.725 4.97875 -64 5 C-64 4.67 -64 4.34 -64 4 C-52.79975635 2.55579849 -41.57902372 1.61985761 -30.3125 0.875 C-28.39135376 0.74375732 -28.39135376 0.74375732 -26.43139648 0.60986328 C-17.60155753 0.0486471 -8.84316286 -0.09917566 0 0 Z " fill="#68CE91" transform="translate(616,723)"/>
<path d="M0 0 C5.62303757 4.67466337 10.79741554 9.67765667 15.9375 14.875 C16.71673828 15.65875 17.49597656 16.4425 18.29882812 17.25 C20.20154085 19.16438581 22.10186171 21.08108034 24 23 C23.01 23.33 22.02 23.66 21 24 C18.95703125 22.85546875 18.95703125 22.85546875 16.8125 21.1875 C16.09707031 20.64480469 15.38164063 20.10210937 14.64453125 19.54296875 C14.10183594 19.03378906 13.55914063 18.52460938 13 18 C13 17.34 13 16.68 13 16 C12.01 16 11.02 16 10 16 C10 15.34 10 14.68 10 14 C9.34 14 8.68 14 8 14 C7.67 13.34 7.34 12.68 7 12 C6.34 12 5.68 12 5 12 C4.731875 11.05125 4.46375 10.1025 4.1875 9.125 C3.25013412 5.74732727 3.25013412 5.74732727 0 4 C0 2.68 0 1.36 0 0 Z " fill="#DDDFE1" transform="translate(716,278)"/>
<path d="M0 0 C0 0.33 0 0.66 0 1 C-2.31 1.33 -4.62 1.66 -7 2 C-7 2.33 -7 2.66 -7 3 C-13.95214281 4.31191997 -20.88444903 4.11058058 -27.9375 4.0625 C-29.19369141 4.05798828 -30.44988281 4.05347656 -31.74414062 4.04882812 C-34.82947663 4.03709681 -37.91471316 4.020681 -41 4 C-41 3.67 -41 3.34 -41 3 C-43.97 2.67 -46.94 2.34 -50 2 C-50 1.67 -50 1.34 -50 1 C-33.3230859 0.23679166 -16.69425389 -0.14795835 0 0 Z " fill="#DFCDF9" transform="translate(807,535)"/>
<path d="M0 0 C0 0.33 0 0.66 0 1 C-3.63 1.33 -7.26 1.66 -11 2 C-9.68 2.66 -8.36 3.32 -7 4 C-8.64574566 4.02688151 -10.29161413 4.04634123 -11.9375 4.0625 C-12.85402344 4.07410156 -13.77054688 4.08570313 -14.71484375 4.09765625 C-17 4 -17 4 -18 3 C-19.44184293 2.87778475 -20.88943144 2.82227242 -22.33618164 2.79467773 C-23.2570607 2.77473251 -24.17793976 2.75478729 -25.12672424 2.73423767 C-26.12775681 2.71752518 -27.12878937 2.70081268 -28.16015625 2.68359375 C-29.17975937 2.66281265 -30.19936249 2.64203156 -31.24986267 2.62062073 C-34.52067048 2.55501148 -37.79156137 2.49618766 -41.0625 2.4375 C-43.27409728 2.39432558 -45.48568603 2.35071166 -47.69726562 2.30664062 C-53.13142151 2.1993186 -58.56566082 2.09757377 -64 2 C-64 1.67 -64 1.34 -64 1 C-57.77854104 0.85493808 -51.55702624 0.71266087 -45.33544922 0.57275391 C-43.22735963 0.52498123 -41.11928594 0.47650127 -39.01123047 0.42724609 C-26.00485015 0.12390833 -13.01003649 -0.07402581 0 0 Z " fill="#D9C2F7" transform="translate(752,537)"/>
<path d="M0 0 C0 0.33 0 0.66 0 1 C-3.3 1.33 -6.6 1.66 -10 2 C-10 2.33 -10 2.66 -10 3 C-34.255 2.505 -34.255 2.505 -59 2 C-59 1.67 -59 1.34 -59 1 C-39.32018056 0.24770109 -19.6964487 -0.15038989 0 0 Z " fill="#FDD8B1" transform="translate(808,903)"/>
<path d="M0 0 C0 0.33 0 0.66 0 1 C-9.02417777 1.69037426 -17.94361322 2.15178302 -27 2 C-27 2.66 -27 3.32 -27 4 C-26.34 4.33 -25.68 4.66 -25 5 C-25.99 5.33 -26.98 5.66 -28 6 C-28.99 5.34 -29.98 4.68 -31 4 C-33.1270431 3.72558628 -33.1270431 3.72558628 -35.44921875 3.8046875 C-36.29677734 3.81113281 -37.14433594 3.81757812 -38.01757812 3.82421875 C-39.33918945 3.84935547 -39.33918945 3.84935547 -40.6875 3.875 C-42.02651367 3.88853516 -42.02651367 3.88853516 -43.39257812 3.90234375 C-45.59532314 3.92590252 -47.79752588 3.95879671 -50 4 C-50 3.67 -50 3.34 -50 3 C-33.30312881 1.14878608 -16.81195614 -0.19882734 0 0 Z " fill="#56D9FA" transform="translate(757,650)"/>
<path d="M0 0 C4.91935902 4.11619836 9.52647956 8.40410362 14 13 C12.140625 13.58203125 12.140625 13.58203125 10 14 C7.75 12.6875 7.75 12.6875 6 11 C6 10.34 6 9.68 6 9 C5.01 9 4.02 9 3 9 C2.731875 8.38125 2.46375 7.7625 2.1875 7.125 C1.04443152 4.7004767 1.04443152 4.7004767 -2 3 C-1.34 2.01 -0.68 1.02 0 0 Z " fill="#DADCDF" transform="translate(740,302)"/>
<path d="M0 0 C-0.33 0.99 -0.66 1.98 -1 3 C-11.03411669 3.17707265 -20.99112106 2.62277469 -31 2 C-31 1.67 -31 1.34 -31 1 C-9.27659574 -0.19148936 -9.27659574 -0.19148936 0 0 Z " fill="#CFE1FD" transform="translate(866,604)"/>
<path d="M0 0 C0.33 0 0.66 0 1 0 C1 2.64 1 5.28 1 8 C0.34 8 -0.32 8 -1 8 C-1 8.99 -1 9.98 -1 11 C-1.99 11 -2.98 11 -4 11 C-4.33 11.99 -4.66 12.98 -5 14 C-6.32 14 -7.64 14 -9 14 C-7.60701445 10.99868813 -5.96044932 8.48942591 -3.9375 5.875 C-1.76773805 3.06372737 -1.76773805 3.06372737 0 0 Z " fill="#E5E6E8" transform="translate(958,1034)"/>
<path d="M0 0 C0 0.33 0 0.66 0 1 C-8.415 2.485 -8.415 2.485 -17 4 C-17 4.66 -17 5.32 -17 6 C-18.65 6 -20.3 6 -22 6 C-22.33 6.66 -22.66 7.32 -23 8 C-23.99 7.01 -24.98 6.02 -26 5 C-18.4797774 -0.09254406 -8.87055619 -0.34786495 0 0 Z " fill="#FDAC52" transform="translate(557,880)"/>
<path d="M0 0 C2.81347657 2.45765453 4.19314594 5.06278989 5.75 8.4375 C6.19859375 9.38496094 6.6471875 10.33242188 7.109375 11.30859375 C8.04119417 14.12448589 8.05367562 15.28228787 7 18 C6.67 16.35 6.34 14.7 6 13 C4.35 13 2.7 13 1 13 C1 12.01 1 11.02 1 10 C1.66 10 2.32 10 3 10 C3 9.34 3 8.68 3 8 C2.34 8 1.68 8 1 8 C-0.35439668 5.29120665 -0.06501451 2.99066732 0 0 Z " fill="#232E3C" transform="translate(964,455)"/>
<path d="M0 0 C0.97748402 3.04106139 1.29779422 5.03361322 0 8 C-1.62935241 9.37868281 -3.29749607 10.71274093 -5 12 C-5.99 13.485 -5.99 13.485 -7 15 C-7 14.34 -7 13.68 -7 13 C-8.65 13.33 -10.3 13.66 -12 14 C-9.83142753 11.83142753 -7.65985306 9.6764456 -5.4375 7.5625 C-3.15374258 5.16162681 -1.57427001 2.89997107 0 0 Z " fill="#1E2937" transform="translate(914,1005)"/>
<path d="M0 0 C8.91 0 17.82 0 27 0 C26.01 0.495 26.01 0.495 25 1 C25 1.66 25 2.32 25 3 C21.37 3 17.74 3 14 3 C14 2.67 14 2.34 14 2 C7.07 1.505 7.07 1.505 0 1 C0 0.67 0 0.34 0 0 Z " fill="#CFF1DF" transform="translate(801,750)"/>
<path d="M0 0 C1.93746094 -0.02126953 1.93746094 -0.02126953 3.9140625 -0.04296875 C7.07787989 0.16771435 8.75165467 0.50296607 11.375 2.1875 C11.375 2.5175 11.375 2.8475 11.375 3.1875 C9.29173869 3.21459444 7.20837559 3.23393873 5.125 3.25 C3.38476562 3.26740234 3.38476562 3.26740234 1.609375 3.28515625 C-1.07445397 3.20412277 -3.07408687 2.87927305 -5.625 2.1875 C-7.04034778 2.12293121 -8.45837689 2.10138961 -9.875 2.125 C-11.1125 2.145625 -12.35 2.16625 -13.625 2.1875 C-13.625 1.8575 -13.625 1.5275 -13.625 1.1875 C-9.04274265 0.3008403 -4.66513755 0.02337243 0 0 Z " fill="#44C376" transform="translate(565.625,725.8125)"/>
<path d="M0 0 C0 0.33 0 0.66 0 1 C-0.9075 1.144375 -1.815 1.28875 -2.75 1.4375 C-5.80230568 1.9097744 -5.80230568 1.9097744 -7.94628906 2.54272461 C-10.12703052 3.02828438 -11.88533588 3.03054528 -14.109375 2.87890625 C-14.86347656 2.83056641 -15.61757813 2.78222656 -16.39453125 2.73242188 C-17.17183594 2.67634766 -17.94914063 2.62027344 -18.75 2.5625 C-19.54277344 2.51029297 -20.33554687 2.45808594 -21.15234375 2.40429688 C-23.10193997 2.27510676 -25.05102886 2.13830035 -27 2 C-27 1.67 -27 1.34 -27 1 C-17.98175113 -0.06996173 -9.06335876 -0.10234659 0 0 Z " fill="#A475EB" transform="translate(753,506)"/>
<path d="M0 0 C5.59262989 1.09124486 8.16310264 3.92199557 11.77734375 8.02734375 C12.38255859 9.00380859 12.38255859 9.00380859 13 10 C12.67 10.99 12.34 11.98 12 13 C9.99698146 11.0238076 7.99750133 9.04425526 6 7.0625 C5.42765625 6.49853516 4.8553125 5.93457031 4.265625 5.35351562 C2.82474495 3.92121224 1.41012857 2.46258871 0 1 C0 0.67 0 0.34 0 0 Z " fill="#D0D1D4" transform="translate(902,391)"/>
<path d="M0 0 C6.6 0.33 13.2 0.66 20 1 C20 1.33 20 1.66 20 2 C10.64087671 2.99263429 1.39605802 3.10731538 -8 3 C-8 2.67 -8 2.34 -8 2 C-5.36 1.67 -2.72 1.34 0 1 C0 0.67 0 0.34 0 0 Z " fill="#FCDEB8" transform="translate(608,874)"/>
<path d="M0 0 C2.5 0.125 2.5 0.125 3.5 1.125 C3.625 4.125 3.625 4.125 3.5 7.125 C3.17 7.455 2.84 7.785 2.5 8.125 C2.13557767 9.78514616 1.80027117 11.45206064 1.5 13.125 C-1.17927341 9.10608988 -0.65601248 6.88338077 -0.5 2.125 C-1.49 1.795 -2.48 1.465 -3.5 1.125 C-2.5 0.125 -2.5 0.125 0 0 Z " fill="#202C3C" transform="translate(652.5,396.875)"/>
<path d="M0 0 C0.144375 0.639375 0.28875 1.27875 0.4375 1.9375 C0.81007181 3.97545146 0.81007181 3.97545146 2 5 C2.01953125 6.9609375 2.01953125 6.9609375 1.8125 9.375 C1.72935547 10.56222656 1.72935547 10.56222656 1.64453125 11.7734375 C0.81163073 14.65073019 -0.50655034 15.45096314 -3 17 C-2.54775239 11.08507728 -1.8417395 5.64800112 0 0 Z " fill="#353E4C" transform="translate(284,225)"/>
<path d="M0 0 C0.99 0.33 1.98 0.66 3 1 C3.33 2.65 3.66 4.3 4 6 C3.01 6 2.02 6 1 6 C0.67 7.65 0.34 9.3 0 11 C-0.99 10.34 -1.98 9.68 -3 9 C-2.01 6.03 -1.02 3.06 0 0 Z " fill="#1C2735" transform="translate(288,215)"/>
<path d="M0 0 C3.54243452 1.36591169 6.92627929 2.90931484 10.3125 4.625 C11.63701172 5.29402344 11.63701172 5.29402344 12.98828125 5.9765625 C13.65214844 6.31429688 14.31601562 6.65203125 15 7 C14.01 7.66 13.02 8.32 12 9 C12 8.34 12 7.68 12 7 C10.35 7 8.7 7 7 7 C7 6.34 7 5.68 7 5 C5.5459375 4.5978125 5.5459375 4.5978125 4.0625 4.1875 C3.051875 3.795625 2.04125 3.40375 1 3 C0.67 2.01 0.34 1.02 0 0 Z " fill="#E4E5E8" transform="translate(682,450)"/>
<path d="M0 0 C3.21524305 1.40844718 5.32183868 3.10344786 7.75 5.625 C8.67039062 6.57246094 8.67039062 6.57246094 9.609375 7.5390625 C10.29773438 8.26222656 10.29773438 8.26222656 11 9 C10.34 9.66 9.68 10.32 9 11 C7.2925002 9.71937515 5.62626404 8.38232443 4 7 C4 6.34 4 5.68 4 5 C3.34 5 2.68 5 2 5 C1.34 3.35 0.68 1.7 0 0 Z " fill="#E7E9EB" transform="translate(667,437)"/>
<path d="M0 0 C2.76223278 2.76223278 2.57856291 5.20706617 3 9 C1.35 9.33 -0.3 9.66 -2 10 C-3.39195915 5.82412255 -1.82323219 3.86525224 0 0 Z " fill="#DADDDF" transform="translate(964,1022)"/>
<path d="M0 0 C0.99 1.32 1.98 2.64 3 4 C1.625 6 1.625 6 0 8 C-0.66 8 -1.32 8 -2 8 C-2.33 8.66 -2.66 9.32 -3 10 C-4.32 9.67 -5.64 9.34 -7 9 C-6.21625 8.2575 -5.4325 7.515 -4.625 6.75 C-2.43495469 4.45566682 -1.17268614 2.87841142 0 0 Z " fill="#E5E7EA" transform="translate(643,658)"/>
<path d="M0 0 C1.93525589 1.85784565 2.98087695 3.20798683 3.046875 5.94140625 C2.62728798 9.73866874 2.17526277 11.73710584 0 15 C-1.33257403 4.44191344 -1.33257403 4.44191344 0 0 Z " fill="#222D39" transform="translate(967,999)"/>
<path d="M0 0 C1.65 0 3.3 0 5 0 C5 0.33 5 0.66 5 1 C9.95 1.33 14.9 1.66 20 2 C20 2.33 20 2.66 20 3 C13.4 3 6.8 3 0 3 C0 2.01 0 1.02 0 0 Z " fill="#FEDCDA" transform="translate(600,949)"/>
<path d="M0 0 C-0.33 0.99 -0.66 1.98 -1 3 C-7.93 3 -14.86 3 -22 3 C-22 2.67 -22 2.34 -22 2 C-20.72382812 1.93941406 -19.44765625 1.87882813 -18.1328125 1.81640625 C-16.46352984 1.73200432 -14.79425963 1.64735614 -13.125 1.5625 C-12.28324219 1.52318359 -11.44148437 1.48386719 -10.57421875 1.44335938 C-9.76855469 1.40146484 -8.96289062 1.35957031 -8.1328125 1.31640625 C-7.01737061 1.26141968 -7.01737061 1.26141968 -5.87939453 1.20532227 C-3.65464062 0.96226978 -2.26227007 0 0 0 Z " fill="#FDF2BC" transform="translate(874,822)"/>
<path d="M0 0 C4 4.625 4 4.625 4 8 C2.35 7.67 0.7 7.34 -1 7 C-0.67 4.69 -0.34 2.38 0 0 Z " fill="#1D2838" transform="translate(707,397)"/>
<path d="M0 0 C4.455 0.99 4.455 0.99 9 2 C7.02 2.99 7.02 2.99 5 4 C4.67 3.67 4.34 3.34 4 3 C2.68 3.99 1.36 4.98 0 6 C0 4.02 0 2.04 0 0 Z " fill="#D3D5D7" transform="translate(335,1070)"/>
<path d="M0 0 C2.79593783 1.39796892 2.95173777 3.13474989 4 6 C4.33 6.66 4.66 7.32 5 8 C4.01 9.485 4.01 9.485 3 11 C2.30034557 9.73581754 1.61565237 8.46334598 0.9375 7.1875 C0.55464844 6.47980469 0.17179688 5.77210938 -0.22265625 5.04296875 C-1 3 -1 3 0 0 Z " fill="#1D2636" transform="translate(657,415)"/>
<path d="M0 0 C3.63 1.98 7.26 3.96 11 6 C7 7 7 7 4.75 6.0625 C3.88375 5.5365625 3.88375 5.5365625 3 5 C3 4.34 3 3.68 3 3 C2.01 2.67 1.02 2.34 0 2 C0 1.34 0 0.68 0 0 Z " fill="#E1E3E6" transform="translate(316,1059)"/>
<path d="M0 0 C-0.33 1.32 -0.66 2.64 -1 4 C-3.02045442 3.39816251 -5.02111039 2.72693904 -7 2 C-7.33 1.34 -7.66 0.68 -8 0 C-5.13822943 -1.43088528 -3.06624227 -0.59991697 0 0 Z " fill="#E6E7E9" transform="translate(721,404)"/>
<path d="M0 0 C1.9451 2.91765 2.45276317 4.62537285 3 8 C2.01 7.67 1.02 7.34 0 7 C-0.33 7.66 -0.66 8.32 -1 9 C-1.33 7.35 -1.66 5.7 -2 4 C-1.34 4 -0.68 4 0 4 C0 2.68 0 1.36 0 0 Z " fill="#222833" transform="translate(335,997)"/>
<path d="M0 0 C-0.99 1.32 -1.98 2.64 -3 4 C-5.97 3.505 -5.97 3.505 -9 3 C-6.40821726 0.40821726 -3.54324677 -1.77162338 0 0 Z " fill="#D3D6DA" transform="translate(919,1070)"/>
<path d="M0 0 C0 2.33333333 0 4.66666667 0 7 C-1.98 7 -3.96 7 -6 7 C-4.02 4.69 -2.04 2.38 0 0 Z " fill="#212B3B" transform="translate(305,191)"/>
<path d="M0 0 C0.33 0.99 0.66 1.98 1 3 C1.99 3.33 2.98 3.66 4 4 C3.67 5.65 3.34 7.3 3 9 C0.9375 7.3125 0.9375 7.3125 -1 5 C-0.75 2.25 -0.75 2.25 0 0 Z " fill="#DEDFE2" transform="translate(899,382)"/>
<path d="M0 0 C-1.98 0.33 -3.96 0.66 -6 1 C-6.33 1.99 -6.66 2.98 -7 4 C-8.32 3.34 -9.64 2.68 -11 2 C-3.57142857 -1.57142857 -3.57142857 -1.57142857 0 0 Z " fill="#CFD2D7" transform="translate(359,224)"/>
<path d="M0 0 C0.33 0.66 0.66 1.32 1 2 C2.32 2.33 3.64 2.66 5 3 C2.03 3.66 -0.94 4.32 -4 5 C-4 4.34 -4 3.68 -4 3 C-2.68 2.67 -1.36 2.34 0 2 C0 1.34 0 0.68 0 0 Z " fill="#D5D7DA" transform="translate(444,350)"/>
</svg>
